<svg width="168" height="815" viewBox="0 0 168 815" fill="none" xmlns="http://www.w3.org/2000/svg">
<g filter="url(#filter0_d_133_165)">
<path d="M111.96 135.828C82.4919 39.7379 0 1 0 1L0.5 501V815.5H160.5C178.555 815.5 103.606 772.74 125.501 696.271C151.873 604.159 127.385 619.298 111.96 544.841C93.7327 456.86 147.141 436.018 111.96 350.145C66.6156 239.465 141.428 231.918 111.96 135.828Z" fill="url(#paint0_linear_133_165)" shape-rendering="crispEdges"/>
<path d="M111.96 135.828C82.4919 39.7379 0 1 0 1L0.5 501V815.5H160.5C178.555 815.5 103.606 772.74 125.501 696.271C151.873 604.159 127.385 619.298 111.96 544.841C93.7327 456.86 147.141 436.018 111.96 350.145C66.6156 239.465 141.428 231.918 111.96 135.828Z" stroke="white" shape-rendering="crispEdges"/>
</g>
<defs>
<filter id="filter0_d_133_165" x="-4.50079" y="0.212402" width="172.336" height="823.788" filterUnits="userSpaceOnUse" color-interpolation-filters="sRGB">
<feFlood flood-opacity="0" result="BackgroundImageFix"/>
<feColorMatrix in="SourceAlpha" type="matrix" values="0 0 0 0 0 0 0 0 0 0 0 0 0 0 0 0 0 0 127 0" result="hardAlpha"/>
<feOffset dy="4"/>
<feGaussianBlur stdDeviation="2"/>
<feComposite in2="hardAlpha" operator="out"/>
<feColorMatrix type="matrix" values="0 0 0 0 0 0 0 0 0 0 0 0 0 0 0 0 0 0 0.25 0"/>
<feBlend mode="normal" in2="BackgroundImageFix" result="effect1_dropShadow_133_165"/>
<feBlend mode="normal" in="SourceGraphic" in2="effect1_dropShadow_133_165" result="shape"/>
</filter>
<linearGradient id="paint0_linear_133_165" x1="56.5" y1="43" x2="81.6674" y2="815.5" gradientUnits="userSpaceOnUse">
<stop offset="0.385" stop-color="#92CCEC"/>
<stop offset="0.885" stop-color="#5898AD" stop-opacity="0"/>
</linearGradient>
</defs>
</svg>
