<?xml version="1.0" encoding="utf-8"?>
<!-- Generator: Adobe Illustrator 27.5.0, SVG Export Plug-In . SVG Version: 6.00 Build 0)  -->
<svg version="1.1" xmlns="http://www.w3.org/2000/svg" xmlns:xlink="http://www.w3.org/1999/xlink" x="0px" y="0px"
	 viewBox="0 0 500 500" style="enable-background:new 0 0 500 500;" xml:space="preserve">

<g id="OBJECTS">
	<g>
		<g>
			<g>
				<path style="fill:#A5BF67;" d="M202.021,271.689c22.726,106.56,59.877,56.156,76.115,167.114
					c1.691,3.045,4.059-22.665-2.706-53.449C268.663,354.57,234.158,282.515,202.021,271.689z"/>
				<path style="fill:#91AD4E;" d="M224.278,300.312c0.158,2.325,0.679,4.609,1.438,6.831c0.853,2.198,1.858,4.342,3.07,6.401
					c2.356,4.15,5.288,8.013,8.268,11.831c5.941,7.669,12.373,15.077,18.043,23.118c5.7,7.996,10.883,16.505,14.479,25.746
					c1.798,4.607,3.336,9.336,4.302,14.197c0.973,4.854,1.547,9.782,1.676,14.719c0.014,0.528-0.403,0.968-0.931,0.981
					c-0.513,0.013-0.942-0.38-0.979-0.886l-0.001-0.02c-0.343-4.814-1.004-9.593-2.099-14.278c-1.071-4.69-2.613-9.263-4.452-13.704
					c-1.854-4.439-4.038-8.739-6.447-12.915c-2.434-4.165-5.117-8.19-7.95-12.117c-2.843-3.921-5.814-7.76-8.821-11.59
					c-3.013-3.826-6.085-7.624-9.063-11.527c-2.928-3.938-5.832-7.943-8.2-12.344c-1.22-2.175-2.183-4.512-3.01-6.895
					c-0.738-2.424-1.208-4.949-1.235-7.51c-0.006-0.528,0.418-0.961,0.946-0.966c0.509-0.005,0.929,0.387,0.964,0.888
					L224.278,300.312z"/>
			</g>
			<path style="fill:#91AD4E;" d="M170.536,34.579c-4.292,8.447-17.871,48.593-2.341,78.724
				c15.53,30.132,16.812,30.659,27.502,42.902c5.445,6.235,7.306-3.913,7.306-3.913C210.563,143.734,185.214,38.066,170.536,34.579z
				"/>
			<g>
				<path style="fill:#F2EDCB;" d="M250.874,95.71c-2.322,20.239-8.906,35.707-4.969,49.886
					c3.937,14.179,19.405,19.765,20.479,19.335c1.074-0.43,5.102-18.906,0-31.716c-5.102-12.81-10.742-38.536-10.742-38.536
					L250.874,95.71z"/>
				<path style="fill:#EBE5C1;" d="M249.382,116.138c0,0,0.27,16.068,1.485,16.338c1.055,0.235,3.026-11.032,3.35-13.295
					c0-0.157,0.009-0.274,0.026-0.343c0.036-0.142,0.023,0-0.026,0.343c-0.006,2.327,1.749,13.682,3.266,13.299
					c1.62-0.409,1.096-16.747,1.096-16.747s6.174,17.682,7.805,17.483c-4.686-11.766-9.822-34.412-10.629-38.028l-0.672-0.387
					l-4.209,0.909c-1.433,12.495-4.489,23.17-5.693,32.848C246.683,128.688,249.382,116.138,249.382,116.138z"/>
				<path style="fill:#E0DBB8;" d="M266.384,133.216c-5.102-12.81-10.742-38.536-10.742-38.536l-1.842,0.398
					c-1.779,13.683-3.719,51.616,12.584,69.854C267.459,164.502,271.487,146.026,266.384,133.216z"/>
				<path style="fill:#B9D082;" d="M251.482,69.98c-10.823,4.744-2.977,20.319-0.605,25.73c2.372,5.411,8.214,0.148,11.347-1.225
					c3.133-1.373,10.962-2.103,8.59-7.514S262.305,65.236,251.482,69.98z"/>
				<g>
					<path style="fill:#F2EDCB;" d="M259.302,86.843c8.183-3.587,36.926,2.895,48.388,20.757
						c11.463,17.862,8.787,32.476,7.612,33.112c-1.174,0.636-19.278-5.303-35.443-23.672
						C263.694,98.671,259.302,86.843,259.302,86.843z"/>
					<path style="fill:#EBE5C1;" d="M259.302,86.843c6.672-2.925,27.008,0.847,40.506,12.02c-2.408,1.048-19.211-6.333-19.211-6.333
						s18.599,13.269,17.027,14.751c-1.572,1.482-20.513-11.319-20.513-11.319s14.836,19.044,13.871,20.261
						c-0.965,1.217-19.062-17.985-19.062-17.985s10.991,18.334,8.375,19.275c-0.145-0.162-0.291-0.308-0.436-0.472
						C263.694,98.671,259.302,86.843,259.302,86.843z"/>
					<path style="fill:#E0DBB8;" d="M259.302,86.843c0,0,4.392,11.828,20.558,30.197c16.165,18.369,34.269,24.308,35.443,23.672
						C317.601,135.4,292.595,100.051,259.302,86.843z"/>
				</g>
				<g>
					<path style="fill:#FFFBE3;" d="M289.997,113.67c-8.223-15.673-21.07-28.028-29.945-24.138
						c-8.874,3.89-8.494,21.71-2.541,38.378c7.644,21.402,26.184,31.106,31.901,28.6
						C295.129,154.004,300.556,133.795,289.997,113.67z"/>
					<path style="fill:#F2EDCB;" d="M255.37,104.352c0,0,6.602,19.507,7.629,19.056c1.027-0.45-2.937-19.486-2.937-19.486
						s8.226,23.049,9.801,22.359c1.574-0.69-5.161-21.765-5.161-21.765s12.848,29.408,14.493,28.687
						c1.645-0.721-11.275-30.097-11.275-30.097s10.934,19.234,12.509,18.544c1.575-0.69-9.801-22.359-9.801-22.359
						s11.312,15.815,12.34,15.365c1.027-0.45-8.844-18.524-8.844-18.524s13.014,14.018,13.744,13.735
						c-8.191-13.795-19.673-23.903-27.815-20.334c-8.142,3.569-8.49,18.863-3.896,34.234
						C256.86,123.421,255.37,104.352,255.37,104.352z"/>
				</g>
				<path style="fill:#D7F297;" d="M253.069,70.743c-3.181,2.312,3.065,10.256,6.574,7.437
					C263.153,75.361,256.725,68.086,253.069,70.743z"/>
				<path style="fill:#A5BF67;" d="M250.874,95.71c2.372,5.411,8.214,0.148,11.347-1.225c3.133-1.373,10.962-2.103,8.59-7.514
					c-0.332-0.758-0.742-1.736-1.224-2.835c-0.094,0.043-0.181,0.079-0.276,0.124c-11.751,5.549-19.011-4.341-20.504-12.579
					C242.156,77.698,248.736,90.832,250.874,95.71z"/>
			</g>
			<path style="fill:#A5BF67;" d="M250.128,70.957c-5.809-7.28-13.486-13.053-21.945-16.665c-4.224-1.801-8.68-3.033-13.132-3.353
				c-2.223-0.235-4.433-0.129-6.59,0.128c-1.066,0.191-2.143,0.334-3.162,0.668c-1.052,0.236-2.022,0.673-3.013,1.051
				c-3.872,1.711-7.15,4.557-9.511,8.174c-2.336,3.639-3.92,7.873-4.888,12.307c-1.011,4.432-1.35,9.078-1.413,13.735
				c-0.098,4.666,0.262,9.346,0.783,14.013c0.495,4.673,1.417,9.316,2.391,13.947c1.066,4.618,2.24,9.224,3.622,13.79
				c2.704,9.144,5.909,18.189,9.331,27.166c3.434,8.975,7.038,17.907,10.644,26.849c3.658,8.921,7.338,17.845,10.938,26.808
				c3.607,8.96,7.107,17.97,10.538,27.009c3.457,9.029,6.764,18.12,9.958,27.252c3.223,9.123,6.219,18.326,9.143,27.552
				c1.412,4.628,2.883,9.24,4.225,13.89l2.052,6.964l1.906,7.09c2.37,9.454,4.28,18.942,6.186,28.43
				c1.887,9.49,3.613,18.996,5.323,28.505c0.797,4.764,1.607,9.525,2.356,14.295c0.715,4.776,1.464,9.546,2.094,14.334
				c1.314,9.569,2.465,19.158,3.239,28.81c0.074,0.921-0.613,1.729-1.535,1.802c-0.838,0.067-1.582-0.495-1.765-1.291l-0.001-0.006
				c-2.179-9.408-4.096-18.862-5.942-28.32c-0.962-4.723-1.795-9.467-2.724-14.193l-2.614-14.207
				c-3.404-18.939-6.938-37.901-11.367-56.49l-1.762-6.903l-1.95-6.937c-1.274-4.633-2.677-9.228-4.021-13.841
				c-2.798-9.193-5.64-18.375-8.692-27.492c-3.031-9.123-6.176-18.211-9.474-27.248c-3.301-9.036-6.74-18.024-10.254-26.989
				c-3.519-8.963-7.106-17.906-10.711-26.853c-3.65-8.929-7.304-17.868-10.805-26.891c-3.496-9.024-6.939-18.101-9.826-27.42
				c-1.485-4.643-2.752-9.373-3.915-14.136c-1.072-4.789-2.092-9.608-2.679-14.523c-0.639-4.9-0.994-9.865-0.887-14.843
				c0.073-4.973,0.438-10.004,1.572-14.986c1.111-4.961,2.862-9.945,5.842-14.376c2.958-4.415,7.288-8.128,12.291-10.202
				c1.268-0.463,2.526-0.965,3.838-1.238c1.294-0.374,2.614-0.532,3.928-0.724c2.63-0.255,5.27-0.294,7.84,0.035
				c5.161,0.587,10.061,2.18,14.619,4.337c4.557,2.162,8.834,4.861,12.617,8.139c3.797,3.251,7.224,6.942,10.006,11.093
				c0.514,0.766,0.309,1.804-0.457,2.318c-0.726,0.486-1.695,0.329-2.232-0.34L250.128,70.957z"/>
			<path style="fill:#A5BF67;" d="M197.71,159.636c2.769-0.246,5.616-1.784,5.616-1.784c3.76-4.257-0.1-34.207-7.538-63.273
				c-3.542,13.904,0.44,33.2,1.365,46.464c0,0-0.707,2.975-4.184,1.451c-2.077-6.369-11.145-17.663-26.094-31.937
				c0.415,0.923,0.853,1.84,1.32,2.746C183.725,143.435,187.019,147.393,197.71,159.636z"/>
			<g>
				<path style="fill:#B9D082;" d="M303.077,242.094c-3.357,0.895-1.335,54.269-20.462,101.421s-6.415,112.542,0,112.542
					c2.669,0,0.445-46.707,20.462-110.317C323.094,282.129,309.749,240.315,303.077,242.094z"/>
				<path style="fill:#A5BF67;" d="M306.542,283.698c-0.169,7.313-1.345,14.541-2.92,21.624c-1.6,7.086-3.604,14.047-5.633,20.979
					c-4.177,13.821-8.454,27.574-11.305,41.613c-1.427,7.024-2.405,14.086-2.815,21.247c-0.488,7.176-0.827,14.364-1.04,21.556
					c-0.216,7.193-0.261,14.391-0.212,21.589c0.051,7.193,0.217,14.407,0.642,21.567l0.001,0.019
					c0.031,0.527-0.371,0.98-0.898,1.012c-0.521,0.031-0.969-0.362-1.01-0.88c-1.134-14.448-1.45-28.901-1.204-43.367
					c0.115-7.231,0.376-14.462,0.859-21.682c0.385-7.247,1.36-14.517,2.778-21.636c2.78-14.286,7.302-28.079,11.497-41.856
					c2.131-6.88,4.229-13.762,5.916-20.728c1.698-6.955,3.081-14,3.433-21.121c0.024-0.528,0.471-0.936,0.999-0.912
					C306.148,282.744,306.552,283.182,306.542,283.698z"/>
			</g>
		</g>
		<g>
			<path style="fill:#91AD4E;" d="M354.645,236.951c33.127-54.204-4.567-71.996,9.811-107.145
				c0.389-3.167-16.126,12.182-18.457,44.24C343.667,206.104,344.833,235.06,354.645,236.951z"/>
			<path style="fill:#A5BF67;" d="M292.847,355.132c-4.743,0,8.56,42.091,25.858,96.087c0.462,1.443,4.284-22.492-1.683-49.727
				C311.054,374.258,296.978,355.132,292.847,355.132z"/>
			<path style="fill:#A5BF67;" d="M287.684,168.951c0.633-3.798,1.732-7.566,3.464-11.15c1.725-3.564,4.202-7.001,7.785-9.433
				c1.784-1.199,3.831-2.121,5.999-2.575c2.167-0.452,4.409-0.461,6.537-0.12c4.284,0.738,7.992,2.679,11.308,4.976
				c3.258,2.357,6.087,5.061,8.716,7.926c2.62,2.869,4.988,5.942,7.122,9.151c2.119,3.217,4.122,6.512,5.833,9.949
				c0.917,1.689,1.667,3.456,2.492,5.187c0.766,1.756,1.478,3.537,2.163,5.323c2.668,7.176,4.632,14.582,5.943,22.077
				c1.323,7.497,1.971,15.077,2.201,22.646c0.208,7.574-0.157,15.136-0.858,22.651l-0.575,5.632
				c-0.222,1.873-0.51,3.736-0.763,5.605l-0.392,2.802l-0.488,2.784l-0.988,5.567c-1.527,7.375-3.216,14.722-5.326,21.944
				l-1.545,5.428l-1.706,5.376l-3.338,10.638c-4.355,14.103-7.985,28.446-10.627,42.986c-0.68,3.63-1.273,7.277-1.916,10.914
				c-0.335,1.816-0.602,3.644-0.859,5.474l-0.794,5.485c-1.048,7.314-1.897,14.659-2.589,22.018
				c-1.414,14.706-2.445,29.491-3.375,44.255l-0.003,0.051c-0.058,0.923-0.854,1.624-1.777,1.566
				c-0.814-0.051-1.456-0.677-1.556-1.457c-0.971-7.53-1.253-15.021-1.238-22.538l-0.007-2.818l0.076-2.814l0.167-5.63
				c0.226-3.746,0.432-7.496,0.739-11.238c0.671-7.478,1.49-14.944,2.532-22.382c1.056-7.436,2.33-14.841,3.776-22.213l2.378-11.017
				l2.733-10.937c0.43-1.829,0.965-3.631,1.489-5.436l1.566-5.416c0.543-1.799,1.012-3.619,1.617-5.4l1.788-5.349l3.571-10.617
				l1.782-5.241l1.621-5.289c2.185-7.049,3.882-14.226,5.463-21.42l1.021-5.426l0.506-2.714l0.41-2.728
				c0.265-1.82,0.566-3.636,0.802-5.459l0.609-5.481c0.638-7.32,0.949-14.666,0.703-21.991c-0.581-14.629-3.228-29.177-8.502-42.688
				c-2.655-6.735-5.894-13.237-9.892-19.217c-1.971-3.01-4.212-5.816-6.54-8.512c-2.348-2.67-4.905-5.17-7.639-7.247
				c-2.714-2.026-5.75-3.678-8.824-4.295c-1.533-0.328-3.074-0.396-4.573-0.171c-1.497,0.232-2.942,0.788-4.294,1.59
				c-2.716,1.619-4.92,4.303-6.687,7.276c-1.759,3.005-3.009,6.38-3.98,9.85l-0.005,0.017c-0.249,0.889-1.171,1.408-2.06,1.159
				C288.054,170.604,287.549,169.78,287.684,168.951z"/>
			<g>
				<g>
					<path style="fill:#E0DBB8;" d="M265.753,227.138c-3.712,17.403,1.106,43.99,3.591,44.551
						c2.485,0.561,19.389-32.553,18.43-43.429C286.815,217.383,265.753,227.138,265.753,227.138z"/>
					<g>
						<path style="fill:#F2EDCB;" d="M274.599,192.004c-2.754,10.393-18.948,29.73-19.915,44.232s6.526,32.63,8.218,32.63
							c1.692,0,28.644-56.317,24.474-74.687C283.205,175.81,274.599,192.004,274.599,192.004z"/>
						<path style="fill:#EBE5C1;" d="M287.375,194.18c-4.171-18.37-12.777-2.175-12.777-2.175
							c-2.133,8.048-12.319,21.457-17.259,33.832c-0.421,1.207,12.259-12.288,13.866-18.59c0,0-0.659,6.396-3.384,12.602
							c-2.725,6.207-3.719,14.661-3.425,14.702c0.455,0.063,4.573-13.516,8.611-18.465c2.984-3.657,3.653-6.92,3.8-8.376
							c0.032-0.521,0.04-0.808,0.04-0.808s0.012,0.294-0.04,0.808c-0.15,2.441-0.838,10.112-3.819,18.473
							c-3.617,10.144,2.359,12.031,2.359,12.031l3.243-3.051C284.478,219.627,289.324,202.762,287.375,194.18z"/>
					</g>
					<g>
						<path style="fill:#FFFBE3;" d="M284.19,194.18c1.692,16.919-13.845,27.317-12.844,48.827
							c1.001,21.51,10.911,31.178,13.811,31.903c2.9,0.725,14.873-26.88,14.771-41.573c-0.121-17.403-5.345-39.156-5.345-39.156
							H284.19z"/>
						<path style="fill:#EBE5C1;" d="M284.19,194.18c1.061,10.614-4.657,18.663-8.82,28.498c-0.669,1.854-1.212,3.38-1.534,4.461
							c0,0,5.754-4.784,9.86-16.265c0,0-5.424,20.293-3.741,20.608c1.683,0.315,8.715-17.178,8.715-17.178s-1.544,25.021,0,25.202
							c1.544,0.181,7.335-24.001,7.335-24.001s1.633,17.999,3.923,17.832c-0.121-17.403-5.345-39.156-5.345-39.156H284.19z"/>
					</g>
				</g>
				<g>
					<path style="fill:#B9D082;" d="M289.315,169.306c-11.806-2.277-14.23,15.3-15.369,21.203s6.794,4.869,10.212,5.528
						c3.417,0.659,10.397,4.57,11.535-1.333C296.833,188.801,301.121,171.583,289.315,169.306z"/>
					<path style="fill:#D7F297;" d="M290.204,170.862c-4,0.099-3.357,10.361,1.211,10.027S294.801,170.748,290.204,170.862z"/>
					<path style="fill:#A5BF67;" d="M273.945,190.507c-1.139,5.903,6.794,4.869,10.212,5.528c3.417,0.659,10.397,4.57,11.535-1.333
						c0.16-0.827,0.381-1.882,0.612-3.082c-0.103-0.018-0.197-0.038-0.303-0.055c-13.048-2.14-13.417-14.617-9.909-22.38
						C277.046,170.384,274.971,185.186,273.945,190.507z"/>
				</g>
			</g>
			<path style="fill:#A5BF67;" d="M364.456,129.806c0.117-0.954-1.304-0.216-3.404,2.139c-1.647,2.037-6.584,10.123-4.204,31.84
				c2.834,25.869,2.71,55.6-3.553,70.767c-0.522,1.264,1.629,3.2,4.207,2.046C389.603,183.127,350.164,164.747,364.456,129.806z"/>
			<g>
				<path style="fill:#B9D082;" d="M338.591,450.528c-3.741-0.374-6.357-33.929,26.185-87.043s25.092-56.028,21.779-74.013
					c-3.313-17.985,21.084,10.383,16.807,32.21C393.576,371.627,337.469,428.834,338.591,450.528z"/>
				<path style="fill:#A5BF67;" d="M338.616,433.545c1.423-5.123,3.124-10.17,5.04-15.135c1.976-4.941,4.164-9.795,6.529-14.561
					c2.397-4.751,5.021-9.379,7.753-13.936c2.731-4.559,5.62-9.019,8.649-13.375c6.03-8.73,12.433-17.174,18.81-25.572
					c3.164-4.214,6.301-8.446,9.138-12.83c1.439-2.181,2.751-4.428,3.897-6.736c1.129-2.308,2.103-4.704,2.493-7.167l0.001-0.006
					c0.083-0.522,0.573-0.878,1.095-0.795c0.51,0.081,0.861,0.552,0.8,1.06c-0.337,2.788-1.298,5.383-2.422,7.836
					c-1.136,2.454-2.431,4.814-3.839,7.082c-2.787,4.564-5.908,8.858-9.005,13.151c-6.214,8.57-12.621,16.941-18.529,25.65
					c-5.903,8.704-11.513,17.602-16.323,26.93c-2.431,4.647-4.69,9.384-6.742,14.212c-2.036,4.834-3.857,9.755-5.512,14.741
					l-0.004,0.011c-0.167,0.502-0.708,0.773-1.21,0.607C338.751,434.548,338.482,434.033,338.616,433.545z"/>
				<path style="fill:#D7F297;" d="M369.263,244.43c-11.969,20.198,35.555,58.756,29.197,94.291
					C409.68,314.408,413.4,273.231,369.263,244.43z"/>
				<path style="fill:#B9D082;" d="M389.275,275.113c3.369,3.063,5.845,6.877,7.966,10.78c2.075,3.943,3.763,8.072,5.017,12.329
					c0.636,2.125,1.224,4.265,1.638,6.448l0.335,1.629l0.255,1.647l0.238,1.646l0.154,1.661l0.142,1.658
					c0.032,0.554,0.019,1.115,0.03,1.67l0.016,1.664c-0.024,0.556-0.079,1.113-0.122,1.667c-0.117,2.214-0.661,4.417-1.452,6.449
					c0.812-4.32,0.307-8.639-0.478-12.85c-0.82-4.217-2.036-8.348-3.458-12.398c-1.457-4.038-3.104-8.007-5.036-11.818
					c-1.902-3.823-4.04-7.519-6.628-10.858l-0.021-0.027c-0.324-0.419-0.248-1.021,0.171-1.345
					C388.416,274.775,388.937,274.806,389.275,275.113z"/>
			</g>
			<g>
				<path style="fill:#B9D082;" d="M368.722,320.822c-27.139,40.877-50.231,57.209-51.756,93.045
					c-0.443,10.42,0.443,19.066,1.33,19.066c0.887,0,2.534-15.304,20.476-37C370.464,357.611,374.929,320.822,368.722,320.822z"/>
				<path style="fill:#A5BF67;" d="M358.842,349.367l-0.92,2.464c-0.327,0.814-0.591,1.661-1.017,2.428
					c-0.799,1.559-1.514,3.181-2.499,4.63c-0.469,0.739-0.919,1.495-1.406,2.22l-1.529,2.121c-0.995,1.442-2.124,2.743-3.184,4.119
					l-6.641,7.845c-1.079,1.311-2.178,2.61-3.188,3.963l-1.565,1.995c-0.511,0.672-0.982,1.37-1.475,2.053
					c-3.938,5.476-7.092,11.449-9.655,17.688l-1.771,4.746c-0.534,1.603-0.963,3.242-1.473,4.857
					c-0.242,0.811-0.503,1.618-0.73,2.435l-0.574,2.479l-1.173,4.961l-0.012,0.049c-0.122,0.514-0.637,0.832-1.15,0.71
					c-0.493-0.117-0.806-0.599-0.722-1.092c1.168-6.796,2.594-13.61,5.104-20.114c2.419-6.523,5.75-12.723,9.741-18.424
					c3.947-5.746,8.723-10.798,13.116-15.97c4.446-5.117,8.418-10.564,10.919-16.801l0.02-0.051c0.197-0.49,0.753-0.728,1.243-0.531
					C358.785,348.339,359.023,348.883,358.842,349.367z"/>
			</g>
		</g>
		<g>
			<path style="fill:#B9D082;" d="M230.553,449.519c-19.505-27.975-4.324-114.788,14.674-144.591
				c3.719-5.835,12.47,26.616,12.282,46.488C257.32,371.288,223.918,426.623,230.553,449.519z"/>
			<path style="fill:#A5BF67;" d="M248.199,328.208c0.139,5.258-0.455,10.452-1.226,15.581c-0.809,5.127-1.836,10.201-2.932,15.251
				c-2.296,10.076-4.796,20.076-7.268,30.061c-2.454,9.987-4.724,20.013-6.309,30.113c-0.771,5.05-1.31,10.132-1.377,15.195
				c-0.087,5.049,0.44,10.151,2.331,14.702l0.018,0.045c0.203,0.488-0.028,1.047-0.516,1.25c-0.474,0.197-1.018-0.018-1.234-0.479
				c-2.291-4.916-2.916-10.296-2.991-15.509c-0.072-5.243,0.43-10.44,1.113-15.585c1.378-10.299,3.716-20.388,6.09-30.427
				c2.364-10.046,5.071-19.988,7.384-29.997c1.199-4.993,2.327-10,3.235-15.033c0.919-5.027,1.645-10.091,1.769-15.145l0.001-0.021
				c0.013-0.528,0.452-0.946,0.98-0.933C247.777,327.289,248.185,327.703,248.199,328.208z"/>
		</g>
		<g>
			<g>
				<path style="fill:#A5BF67;" d="M96.642,158.231c-4.671,7.481-4.162,49.226,15.582,74.428
					c19.744,25.202,35.787,34.922,36.787,32.641c1-2.281-12.243-26.598-26.343-42.512
					C101.325,198.697,96.642,158.231,96.642,158.231z"/>
				<path style="fill:#91AD4E;" d="M97.195,157.643c-4.189,0.608,1.083,68.936,36.743,80.571c0,0-7.339-24.334-19.881-39.719
					S97.195,157.643,97.195,157.643z"/>
			</g>
			<path style="fill:#A5BF67;" d="M162.58,178.211c-3.056-6.248-8.323-11.493-14.489-14.299c-3.059-1.4-6.389-2.123-9.463-1.73
				c-3.081,0.367-5.779,1.916-7.778,4.306c-2.034,2.367-3.394,5.479-4.284,8.761c-0.869,3.303-1.365,6.788-1.544,10.326
				c-0.1,1.76-0.136,3.566-0.092,5.323c0.045,1.734,0.181,3.483,0.357,5.238c0.372,3.512,1.057,7.039,1.885,10.544
				c3.459,14.018,8.741,27.794,14.54,41.299c2.888,6.769,5.992,13.455,9.183,20.105l4.843,9.954l5.026,9.871
				c13.446,26.316,27.958,52.122,41.304,78.645c6.681,13.258,13.021,26.728,18.521,40.64c1.401,3.467,2.623,7.014,3.85,10.56
				c1.156,3.576,2.24,7.183,3.139,10.854c0.422,1.846,0.861,3.682,1.205,5.552c0.357,1.861,0.625,3.75,0.876,5.637
				c0.44,3.783,0.653,7.637,0.258,11.482c-0.095,0.922-0.919,1.593-1.841,1.498c-0.801-0.082-1.413-0.715-1.497-1.485l-0.001-0.013
				c-0.785-7.123-2.772-14.085-4.954-20.986c-2.247-6.894-4.824-13.72-7.552-20.51c-5.467-13.583-11.773-26.901-18.161-40.191
				c-12.895-26.539-26.584-52.792-39.922-79.262l-9.874-19.937c-3.244-6.675-6.41-13.395-9.507-20.16
				c-3.084-6.771-6.014-13.628-8.676-20.621c-2.685-6.981-5.065-14.123-6.783-21.518c-0.866-3.694-1.593-7.447-1.997-11.296
				c-0.203-1.924-0.33-3.868-0.331-5.834c-0.012-1.941,0.049-3.838,0.187-5.769c0.262-3.843,0.821-7.726,1.951-11.549
				c1.144-3.8,2.851-7.635,5.731-10.84c1.429-1.595,3.186-2.968,5.148-3.964c1.963-0.993,4.124-1.594,6.27-1.762
				c4.322-0.357,8.443,0.808,12.018,2.61c3.603,1.809,6.705,4.361,9.335,7.269c2.633,2.912,4.759,6.274,6.185,9.927
				c0.335,0.859-0.089,1.828-0.949,2.164c-0.814,0.318-1.726-0.047-2.105-0.816L162.58,178.211z"/>
			<g>
				<g>
					<path style="fill:#F2EDCB;" d="M169.888,234.606c-0.937-17.674,3.797-34.858,13.413-36.047
						c9.616-1.189,18.393,14.325,21.789,31.695c4.361,22.304-6.62,40.117-12.815,40.883
						C186.079,271.902,171.091,257.3,169.888,234.606z"/>
					<path style="fill:#EBE5C1;" d="M194.896,208.907c0,0,4.289,20.142,3.176,20.279c-1.113,0.138-7.429-18.252-7.429-18.252
						s4.702,24.017,2.996,24.228c-1.706,0.211-6.681-21.347-6.681-21.347s3.977,31.845,2.194,32.065
						c-1.783,0.22-5.682-31.634-5.682-31.634s0.425,22.121-1.281,22.332c-1.706,0.211-2.996-24.228-2.996-24.228
						s-1.646,19.374-2.76,19.512c-1.113,0.138-1.859-20.442-1.859-20.442s-4.027,18.698-4.799,18.828
						c-0.006-16.044,4.703-30.598,13.525-31.689c8.822-1.091,16.934,11.879,20.837,27.441
						C203.357,226.061,194.896,208.907,194.896,208.907z"/>
				</g>
				<path style="fill:#E0C630;" d="M204.714,210.735c2.025,2.665,5.816,7.358,5.876,8.331c0.06,0.973-6.866,0.8-9.112,0.525
					c0.328,2.072,0.183,6.678-0.839,7.568c-1.132,0.746-5.581-0.37-7.489-1.242c-0.338,2.238-2.028,8.957-2.949,8.638
					c-0.922-0.319-4.602-5.104-6.45-7.895c-5.144-7.766-13.64-23.909-6.063-29.665C185.025,191.421,197.133,200.755,204.714,210.735
					z"/>
				<path style="fill:#F2D734;" d="M204.714,210.736c2.025,2.665,5.816,7.358,5.876,8.331c0.06,0.973-6.583-1.488-8.83-1.763
					c0.328,2.072-1.003,7.934-2.026,8.824c-1.132,0.746-6.167,0.355-8.075-0.517c-0.338,2.238-0.538,9.264-1.46,8.945
					c-0.922-0.319-4.602-5.105-6.45-7.895c-5.144-7.766-13.64-23.909-6.063-29.665C185.025,191.423,197.133,200.757,204.714,210.736
					z"/>
				<g>
					<path style="fill:#B9D082;" d="M161.649,174.06c-9.69,6.763,1.041,20.509,4.423,25.355c3.382,4.845,8.085-1.456,10.89-3.413
						c2.805-1.958,10.342-4.2,6.96-9.045C180.541,182.111,171.339,167.297,161.649,174.06z"/>
					<path style="fill:#D7F297;" d="M163.355,174.499c-2.67,2.888,5.005,9.462,7.898,6.013S166.422,171.181,163.355,174.499z"/>
					<path style="fill:#A5BF67;" d="M166.07,199.415c3.382,4.845,8.085-1.456,10.89-3.414c2.805-1.958,10.342-4.2,6.96-9.045
						c-0.474-0.679-1.066-1.558-1.754-2.542c-0.083,0.061-0.162,0.113-0.246,0.175c-10.444,7.733-19.493-0.551-22.563-8.341
						C154.007,183.449,163.021,195.048,166.07,199.415z"/>
				</g>
				<g>
					<path style="fill:#FFFBE3;" d="M175.52,192.439c7.523-5.55,17.645,20.353,8.697,36.542s-7.314,38.044-10.492,38.8
						C170.548,268.538,131.429,224.967,175.52,192.439z"/>
					<path style="fill:#F2EDCB;" d="M179.23,217.814c-4.057,5.252-5.994,14.694-7.549,15.88c-1.555,1.186-2.165-15.099,2.021-23.239
						c-2.912,4.061-4.257,18.157-7.14,18.028c-0.722-0.032-1.241-11.645-0.086-15.798c0,0-4.416,11.461-5.764,11.373
						c-1.348-0.087-1.567-10.445-1.567-10.445s-2.421,13.447-4.4,13.262c0.544-11.325,5.955-23.503,20.774-34.436
						c7.523-5.55,17.645,20.353,8.697,36.542c-1.774,3.209-3.127,6.642-4.189,10.088c-0.001,0-0.002,0-0.003,0
						C178.63,238.878,176.433,224.5,179.23,217.814z"/>
				</g>
				<g>
					<path style="fill:#FFFBE3;" d="M176.84,191.831c6.18-6.453,35.21-11.497,52.649,0.598
						c17.44,12.096,20.577,26.618,19.737,27.656c-0.84,1.038-19.837,2.501-41.814-8.258
						C185.436,201.068,176.84,191.831,176.84,191.831z"/>
					<path style="fill:#F2EDCB;" d="M176.84,191.831c5.039-5.261,25.266-9.583,42.017-4.445c-1.821,1.892-20.17,1.524-20.17,1.524
						s22.267,5.115,21.385,7.087c-0.882,1.972-23.286-2.581-23.286-2.581s21.008,11.893,20.584,13.386
						c-0.424,1.494-24.504-9.293-24.504-9.293s17.185,12.713,15.131,14.585c-0.196-0.094-0.387-0.172-0.583-0.268
						C185.436,201.068,176.84,191.831,176.84,191.831z"/>
				</g>
			</g>
			<g>
				<path style="fill:#A5BF67;" d="M194.034,394.903c-18.595-33.977-35.641-51.475-37.545-57.579
					c-2.884,0.715-3.185,13.754-1.219,18.71c1.965,4.956,10.716,23.679,10.716,23.679l17.799,14.951L194.034,394.903z"/>
				<path style="fill:#B9D082;" d="M155.269,356.034c6.057,32.895,68.404,102.806,77.793,100.779
					c-3.149-14.448-1.131-27.601-28.435-52.647C177.324,379.12,160.462,373.219,155.269,356.034z"/>
			</g>
		</g>
	</g>
</g>
</svg>
