<?xml version="1.0" encoding="utf-8"?>
<!-- Generator: Adobe Illustrator 27.5.0, SVG Export Plug-In . SVG Version: 6.00 Build 0)  -->
<svg version="1.1" xmlns="http://www.w3.org/2000/svg" xmlns:xlink="http://www.w3.org/1999/xlink" x="0px" y="0px"
	 viewBox="0 0 500 500" style="enable-background:new 0 0 500 500;" xml:space="preserve">

<g id="OBJECTS">
	<g>
		<path style="fill:#B9D082;" d="M268.049,449.219c-6.688-19.392-13.441-38.802-21.207-57.876
			c-9.64-24.111-21.964-47.014-35.639-69.076c0.726-3.095,0.804-8.443-3.343-15.858c-6.915-12.365-11.233-42.598-13.255-41.259
			c-1.818,1.203-2.757,18.566,0.547,32.39c-3.01-4.454-6.054-8.879-9.125-13.276c0,0-17.532-25.24-17.532-25.24
			c-5.783-8.458-11.723-16.786-17.457-25.276c-1.448-2.161-4.491-2.641-6.527-1.012c-1.963,1.551-2.283,4.41-0.714,6.357
			c23.197,29.486,46.113,59.367,65.781,91.303c-24.903-28.639-59.89-46.275-96.34-55.174c-7.801,1.081,26.886,12.861,28.576,14.647
			c27.943,12.034,52.068,30.253,74.026,51.129c20.135,34.538,33.014,72.454,43.612,110.89c0.678,2.486,3.369,3.912,5.807,3.056
			C267.611,454.132,268.859,451.569,268.049,449.219z"/>
		<g>
			<path style="fill:#B9D082;" d="M144.333,300.522c-5.715,74.542,71.888,85.345,115.052,150.923
				C239.344,364.723,183.506,367.241,144.333,300.522z"/>
			<path style="fill:#A5BF67;" d="M252.159,427.468c-23.961-62.647-72.205-67.025-107.329-126.119
				C149.039,359.718,211.205,375.198,252.159,427.468z"/>
		</g>
		<g>
			<path style="fill:#B9D082;" d="M237.285,340.899c-22.817-52.937-2.25-70.199,6.609-122.795
				C259.02,291.623,234.078,307.12,237.285,340.899z"/>
			<path style="fill:#A5BF67;" d="M243.895,218.104c-8.649,49.769-27.372,66.533-9.473,113.044
				c-0.046-0.305-1.153-7.862-1.366-31.576C232.839,275.353,246.645,265.666,243.895,218.104z"/>
		</g>
		<g>
			<path style="fill:#B9D082;" d="M258.494,444.165c36.399-73.464,36.399-155.235,77.126-189.398
				C312.048,314.258,307.78,418.798,258.494,444.165z"/>
			<path style="fill:#A5BF67;" d="M335.62,254.767c-38.663,32.433-40.626,107.771-71.868,178.176l0,0.004
				C294.457,411.233,304.146,294.913,335.62,254.767z"/>
		</g>
		<g>
			<path style="fill:#8048AB;" d="M213.142,44.808c-5.491,0-23.793,15.328-23.793,36.604s13.04,62.227,23.793,62.227
				c10.752,0,22.649-47.127,22.649-61.311C235.79,62.665,220.691,44.808,213.142,44.808z"/>
			<path style="fill:#613187;" d="M221.349,64.555c1.509,2.843,2.162,5.976,2.763,9.059c0.527,3.107,0.844,6.237,1.057,9.37
				c0.407,6.269,0.289,12.552-0.133,18.809c-0.481,6.252-1.237,12.494-2.574,18.633c-1.349,6.114-3.058,12.257-6.176,17.75
				c-0.07,0.122-0.225,0.165-0.347,0.096c-0.115-0.065-0.16-0.207-0.107-0.325l0.003-0.007c1.277-2.823,2.268-5.76,3.047-8.755
				c0.813-2.985,1.461-6.016,1.989-9.069c1.053-6.106,1.748-12.276,2.174-18.462c0.425-6.187,0.568-12.394,0.402-18.587
				c-0.086-3.096-0.282-6.19-0.672-9.253c-0.364-3.059-0.88-6.134-2.033-8.955l-0.007-0.016c-0.071-0.173,0.012-0.371,0.186-0.442
				C221.083,64.334,221.268,64.404,221.349,64.555z"/>
			<path style="fill:#613187;" d="M209.986,87.659c0.689,8.432,1.146,16.858,1.728,25.268c0.271,4.207,0.619,8.403,1.003,12.593
				l0.32,3.138l0.388,3.127c0.13,1.042,0.314,2.072,0.469,3.113c0.182,1.032,0.437,2.043,0.634,3.081l0.004,0.022
				c0.026,0.138-0.064,0.271-0.202,0.297c-0.123,0.023-0.242-0.046-0.285-0.16c-1.517-4.006-2.332-8.222-2.954-12.416
				c-0.626-4.203-1.053-8.427-1.368-12.654c-0.587-8.456-0.817-16.929-0.415-25.401c0.009-0.187,0.168-0.332,0.355-0.323
				C209.835,87.352,209.972,87.491,209.986,87.659z"/>
			<path style="fill:#613187;" d="M199.05,92.475c0.886,3.884,1.755,7.77,2.581,11.658c0.848,3.884,1.673,7.769,2.566,11.634
				c0.873,3.869,1.808,7.722,2.869,11.528c0.539,1.9,1.104,3.793,1.787,5.632c0.665,1.838,1.436,3.681,2.681,5.12l0.02,0.023
				c0.092,0.106,0.08,0.266-0.026,0.358c-0.096,0.083-0.235,0.081-0.329,0.003c-1.626-1.362-2.555-3.24-3.461-5.033
				c-0.866-1.831-1.591-3.712-2.236-5.614c-1.309-3.801-2.328-7.677-3.25-11.568c-0.899-3.897-1.681-7.816-2.329-11.756
				c-0.664-3.938-1.186-7.897-1.544-11.881c-0.017-0.187,0.121-0.352,0.308-0.369C198.859,92.194,199.013,92.311,199.05,92.475z"/>
			<path style="fill:#A060D1;" d="M208.049,56.627c-0.886,4.018-1.553,8.094-2.127,12.16c-0.544,4.074-0.935,8.163-1.13,12.257
				c-0.246,4.095-0.173,8.197,0.044,12.29l0.216,3.07c0.098,1.021,0.243,2.036,0.354,3.058l0.164,1.536l0.257,1.52
				c0.181,1.013,0.345,2.031,0.499,3.056l0.002,0.017c0.021,0.139-0.075,0.269-0.214,0.289c-0.126,0.019-0.245-0.058-0.281-0.176
				c-1.229-3.97-2.223-8.062-2.63-12.227c-0.462-4.155-0.614-8.351-0.406-12.525c0.2-4.174,0.648-8.336,1.407-12.439
				c0.75-4.106,1.775-8.153,3.196-12.088c0.064-0.176,0.258-0.267,0.434-0.204c0.162,0.059,0.252,0.228,0.216,0.392L208.049,56.627z
				"/>
		</g>
		<g>
			<g>
				<path style="fill:#8048AB;" d="M276.698,122.978c-28.905,23.864-31.93,25.88-48.064,26.385c0,0,2.689,13.108,5.546,15.125
					c2.857,2.017,16.613,1.344,27.801-3.193C273.169,156.757,276.698,122.978,276.698,122.978z"/>
				<path style="fill:#8F56BB;" d="M288.462,110.878c-1.849,0-18.99,14.355-22.519,33.394c-3.529,19.039-2.882,16.479-2.882,16.479
					s29.266-10.543,29.266-38.614C292.327,116.087,288.462,110.878,288.462,110.878z"/>
				<path style="fill:#613187;" d="M262.178,143.262c-2.176,1.853-4.538,3.436-6.984,4.888c-2.448,1.45-4.999,2.731-7.634,3.833
					c-2.651,1.061-5.375,1.976-8.185,2.566c-2.814,0.557-5.708,0.827-8.556,0.546c-0.14-0.014-0.243-0.139-0.229-0.279
					c0.012-0.122,0.108-0.216,0.226-0.229l0.009-0.001c2.791-0.312,5.492-0.88,8.156-1.626c2.651-0.797,5.251-1.75,7.812-2.819
					c2.561-1.07,5.07-2.275,7.568-3.516c2.488-1.257,4.968-2.568,7.425-3.915l0.009-0.005c0.165-0.09,0.372-0.03,0.462,0.135
					C262.335,142.983,262.298,143.159,262.178,143.262z"/>
				<path style="fill:#613187;" d="M258.929,155.122c-1.953,1.573-4.15,2.718-6.418,3.694c-2.271,0.974-4.637,1.706-7.035,2.28
					c-2.412,0.506-4.846,0.93-7.305,1.052c-1.223,0.122-2.458,0.075-3.681,0.095c-1.226-0.032-2.451-0.126-3.668-0.245
					c-0.14-0.014-0.243-0.139-0.229-0.279c0.012-0.118,0.102-0.209,0.214-0.227l0.016-0.002c1.207-0.194,2.408-0.292,3.602-0.456
					c1.192-0.186,2.386-0.295,3.566-0.513l1.772-0.284l1.76-0.339c1.177-0.199,2.335-0.49,3.499-0.744
					c2.318-0.554,4.607-1.212,6.87-1.961c2.252-0.764,4.505-1.614,6.656-2.63l0.023-0.011c0.169-0.08,0.372-0.008,0.452,0.162
					C259.091,154.857,259.048,155.026,258.929,155.122z"/>
				<path style="fill:#B069E6;" d="M288.307,117.931c0.293,3.341-0.05,6.681-0.829,9.93c-0.763,3.251-1.962,6.412-3.59,9.341
					c-1.638,2.914-3.563,5.696-5.939,8.046c-1.106,1.252-2.43,2.279-3.693,3.352c-0.62,0.551-1.348,0.969-2.024,1.443
					c-0.683,0.467-1.374,0.919-2.069,1.358c-0.118,0.075-0.275,0.04-0.351-0.079c-0.065-0.103-0.047-0.236,0.037-0.318l0.021-0.02
					c1.175-1.147,2.472-2.12,3.587-3.294c1.115-1.171,2.289-2.271,3.276-3.542c2.112-2.414,3.873-5.103,5.4-7.898
					c1.553-2.789,2.736-5.774,3.665-8.838c0.906-3.064,1.585-6.247,1.831-9.45l0.002-0.028c0.014-0.187,0.177-0.326,0.364-0.312
					C288.163,117.635,288.293,117.768,288.307,117.931z"/>
			</g>
			<g>
				<path style="fill:#7B3EAB;" d="M277.203,65.167c-6.05-2.185-32.252,2.154-46.047,41.005
					c-8.235,23.192-13.476,33.078-18.586,33.078c0,0,12.368,13.473,20.266,10.953c11.764-12.772,32.458-27.307,38.484-37.812
					C284.261,89.834,279.387,72.225,277.203,65.167z"/>
				<path style="fill:#613187;" d="M216.995,143.372c1.262-1.271,2.459-2.684,3.573-4.126c1.127-1.44,2.217-2.909,3.272-4.405
					c2.106-2.993,4.121-6.056,6.026-9.192c1.953-3.106,3.762-6.305,5.617-9.483l2.712-4.814c0.909-1.605,1.777-3.232,2.727-4.824
					l0.003-0.005c0.072-0.121,0.229-0.161,0.35-0.088c0.108,0.064,0.151,0.196,0.108,0.31c-0.661,1.732-1.403,3.428-2.104,5.147
					c-0.761,1.689-1.545,3.37-2.348,5.042c-0.836,1.656-1.685,3.306-2.571,4.938c-0.911,1.618-1.814,3.241-2.793,4.822
					c-1.931,3.175-4.022,6.264-6.335,9.189c-2.316,2.922-4.789,5.733-7.82,8.024c-0.149,0.113-0.361,0.083-0.474-0.066
					c-0.103-0.136-0.087-0.324,0.03-0.442L216.995,143.372z"/>
				<path style="fill:#613187;" d="M223.763,146.249c1.264-0.767,2.521-1.857,3.652-2.961c1.17-1.087,2.275-2.252,3.387-3.407
					c2.194-2.345,4.307-4.777,6.408-7.22c2.092-2.455,4.153-4.941,6.221-7.429c2.064-2.492,4.131-4.987,6.276-7.435
					c0.093-0.106,0.254-0.117,0.361-0.024c0.094,0.082,0.113,0.219,0.051,0.323c-0.834,1.4-1.741,2.75-2.611,4.127
					c-0.893,1.361-1.839,2.685-2.782,4.012c-1.892,2.65-3.912,5.208-5.995,7.718c-2.128,2.473-4.31,4.91-6.7,7.157l-1.825,1.652
					c-0.642,0.519-1.251,1.066-1.918,1.557c-0.657,0.498-1.339,0.969-2.036,1.419c-0.716,0.444-1.399,0.86-2.277,1.154
					c-0.175,0.059-0.365-0.036-0.423-0.211c-0.051-0.151,0.013-0.313,0.143-0.392L223.763,146.249z"/>
				<path style="fill:#A060D1;" d="M272.673,81.274c-0.158,2.652-0.636,5.237-1.147,7.826c-0.305,1.281-0.612,2.563-0.96,3.835
					c-0.381,1.261-0.71,2.541-1.136,3.789c-0.43,1.246-0.828,2.507-1.32,3.732l-1.497,3.667l-1.711,3.574
					c-0.556,1.199-1.248,2.328-1.873,3.492l-0.97,1.728l-1.072,1.667c-0.731,1.1-1.395,2.246-2.18,3.308
					c-1.601,2.103-3.11,4.275-4.934,6.192c-0.896,0.969-1.707,2.013-2.669,2.917l-2.836,2.753c-0.928,0.934-1.979,1.734-2.999,2.563
					c-1.019,0.831-2.048,1.647-3.081,2.452c-0.111,0.086-0.271,0.067-0.357-0.044c-0.081-0.103-0.069-0.25,0.023-0.339l0.013-0.012
					c3.761-3.617,7.498-7.223,10.664-11.331c1.666-1.981,3.118-4.124,4.617-6.226c0.731-1.064,1.386-2.18,2.083-3.266l1.031-1.64
					l0.929-1.7c2.57-4.481,4.704-9.206,6.512-14.053c0.476-1.204,0.856-2.442,1.29-3.663c0.402-1.231,0.758-2.477,1.123-3.72
					c0.722-2.487,1.321-5.025,1.783-7.563l0.003-0.017c0.034-0.184,0.21-0.306,0.394-0.273
					C272.566,80.951,272.684,81.105,272.673,81.274z"/>
			</g>
			<g>
				<path style="fill:#7B3EAB;" d="M163.236,62.183c-4.187-0.349-18.822,22.351-7.058,47.055
					c11.764,24.704,42.204,56.648,58.337,49.254c4.537-3.361-12.514-53.399-19.376-61.241
					C188.276,89.408,167.269,62.519,163.236,62.183z"/>
				<path style="fill:#613187;" d="M172.74,101.303c0.775,2.427,1.582,4.857,2.486,7.243c0.859,2.402,1.781,4.781,2.772,7.127
					c1.973,4.695,4.123,9.31,6.622,13.722c2.488,4.412,5.312,8.641,8.655,12.415c1.661,1.896,3.479,3.657,5.482,5.184
					c1.971,1.572,4.137,2.889,6.445,3.961l0.006,0.003c0.128,0.059,0.183,0.211,0.124,0.338c-0.055,0.118-0.19,0.175-0.311,0.135
					c-4.944-1.626-9.335-4.763-12.931-8.515c-3.666-3.72-6.621-8.053-9.207-12.537c-1.27-2.259-2.447-4.567-3.538-6.911
					c-1.055-2.36-2.077-4.734-2.951-7.164c-0.888-2.423-1.707-4.869-2.452-7.336c-0.695-2.484-1.381-4.962-1.861-7.506
					c-0.035-0.184,0.086-0.362,0.27-0.396c0.17-0.032,0.335,0.069,0.386,0.23L172.74,101.303z"/>
				<path style="fill:#613187;" d="M191.596,107.54c1.039,3.282,2.199,6.534,3.375,9.762c1.193,3.225,2.451,6.422,3.811,9.574
					c1.326,3.167,2.778,6.279,4.308,9.354c1.505,3.093,3.181,6.093,4.846,9.132l0.004,0.007c0.068,0.124,0.022,0.279-0.101,0.346
					c-0.111,0.061-0.248,0.03-0.324-0.067c-2.133-2.744-4.162-5.6-5.867-8.642c-0.917-1.487-1.67-3.061-2.498-4.597
					c-0.754-1.572-1.517-3.142-2.201-4.746c-1.38-3.203-2.612-6.47-3.623-9.806c-1.034-3.329-1.862-6.716-2.391-10.175
					c-0.028-0.185,0.099-0.359,0.284-0.387c0.168-0.026,0.326,0.076,0.375,0.233L191.596,107.54z"/>
				<path style="fill:#A060D1;" d="M164.793,75.58c-0.753,2.374-1.264,4.916-1.567,7.428c-0.288,2.525-0.415,5.069-0.246,7.598
					c0.024,0.633,0.067,1.265,0.156,1.892c0.071,0.629,0.115,1.261,0.206,1.887c0.227,1.244,0.394,2.503,0.746,3.721
					c0.518,2.487,1.453,4.852,2.376,7.236l0.015,0.04c0.133,0.343-0.038,0.728-0.38,0.861c-0.317,0.123-0.671-0.014-0.827-0.307
					c-1.246-2.33-2.34-4.777-3.019-7.355c-0.706-2.566-1.148-5.214-1.244-7.875c-0.121-2.657-0.017-5.329,0.43-7.948
					c0.42-2.629,1.067-5.185,2.123-7.683c0.143-0.338,0.533-0.496,0.871-0.353c0.318,0.134,0.477,0.488,0.376,0.81L164.793,75.58z"
					/>
			</g>
			<g>
				<path style="fill:#8F56BB;" d="M157.043,102.475c-3.697,0-25.04,25.712-6.05,45.711s48.4,29.074,48.4,29.074l6.687-20.898
					c0,0-9.473,0.386-18.548-12.723C178.458,130.53,168.639,109.029,157.043,102.475z"/>
				<path style="fill:#8048AB;" d="M187.533,143.639c-9.075-13.108-18.894-34.61-30.489-41.164c0,0-12.019,37.777,13.473,51.054
					c16.914,8.809,26.107,15.511,30.382,19.026l5.182-16.193C206.081,156.361,196.608,156.747,187.533,143.639z"/>
				<path style="fill:#613187;" d="M162.107,134.495c0.757,3.622,2.224,7.01,4.891,9.408c1.272,1.242,2.757,2.304,4.277,3.314
					c1.536,1.003,3.119,1.957,4.726,2.892c3.201,1.89,6.457,3.746,9.619,5.757c3.185,1.972,6.267,4.118,9.271,6.36
					c0.113,0.084,0.136,0.244,0.052,0.357c-0.077,0.103-0.218,0.131-0.328,0.07l-9.825-5.376c-3.268-1.796-6.541-3.573-9.796-5.446
					c-3.211-1.918-6.538-3.84-9.234-6.71c-0.697-0.683-1.263-1.499-1.837-2.293c-0.264-0.414-0.479-0.861-0.718-1.288
					c-0.113-0.218-0.24-0.428-0.34-0.651l-0.261-0.685c-0.738-1.816-1.008-3.739-1.168-5.621c-0.016-0.187,0.123-0.351,0.309-0.367
					c0.173-0.015,0.326,0.103,0.361,0.269L162.107,134.495z"/>
				<path style="fill:#613187;" d="M171.074,132.698c0.436,1.367,1.043,2.739,1.778,4.004c0.688,1.295,1.526,2.507,2.371,3.701
					c1.741,2.361,3.76,4.51,5.931,6.495l1.643,1.478l1.736,1.378l0.861,0.7l0.906,0.642l1.805,1.304l3.735,2.458
					c1.277,0.777,2.58,1.514,3.85,2.335l0.013,0.008c0.118,0.077,0.152,0.234,0.076,0.353c-0.066,0.103-0.194,0.142-0.304,0.1
					c-1.417-0.535-2.803-1.153-4.213-1.734c-1.347-0.7-2.72-1.37-4.037-2.139c-2.604-1.587-5.155-3.312-7.414-5.408
					c-2.266-2.074-4.359-4.376-6.021-6.989c-1.646-2.611-2.984-5.459-3.386-8.586c-0.024-0.185,0.107-0.354,0.292-0.378
					c0.164-0.021,0.316,0.08,0.365,0.232L171.074,132.698z"/>
				<path style="fill:#A060D1;" d="M162.437,113.991c0.136,2.025,0.38,4.089,0.688,6.112c0.342,2.023,0.7,4.039,1.236,6.007
					c0.563,1.956,1.156,3.898,1.979,5.743c0.811,1.846,1.807,3.587,2.985,5.222l0.017,0.024c0.215,0.299,0.147,0.715-0.151,0.93
					c-0.271,0.195-0.639,0.157-0.865-0.074c-1.522-1.552-2.715-3.387-3.704-5.304c-0.897-1.957-1.651-3.971-2.169-6.043
					c-0.507-2.071-0.908-4.161-1.116-6.271c-0.223-2.112-0.333-4.211-0.23-6.357c0.018-0.367,0.33-0.651,0.697-0.633
					c0.341,0.017,0.61,0.287,0.632,0.62L162.437,113.991z"/>
			</g>
			<path style="fill:#B9D082;" d="M264.748,438.692c-32.005-83.846-42.536-175.311-42.056-264.62
				c0.113-2.61-2.067-4.794-4.678-4.679c-2.485,0.099-4.42,2.194-4.321,4.679c1.439,36.698,4.656,73.129,9.107,109.635
				c-11.685-36.002-25.447-71.924-46.76-103.496c-4.892-6.945-10.486-14.519-16.077-20.902
				c-11.386-13.38-23.908-25.605-36.829-37.306c-0.878-0.806-2.329,0.483-1.438,1.439c51.362,51.014,77.388,105.362,102.613,172.027
				C224.325,304.615,253.604,478.568,264.748,438.692z"/>
			<path style="fill:#8F56BB;" d="M211.998,185.223c0,0,2.421,23.296,8.265,28.469c4.568-0.716,2.271-25.035,4.269-29.025
				L211.998,185.223z"/>
			<g>
				<g>
					<path style="fill:#FF5452;" d="M183.101,64.734c-0.339,0.833-0.575,1.567-0.678,2.252c-0.061,0.361-0.049,0.87-0.061,1.399
						c0,0.526-0.034,1.048-0.061,1.542c-0.06,0.99-0.175,1.982-0.193,2.729c-0.014,0.828,0.067,1.722,0.163,2.633
						c0.097,0.913,0.212,1.849,0.293,2.804c0.04,0.474,0.073,0.949,0.068,1.508c-0.006,0.533-0.063,1.033-0.125,1.517
						c-0.272,1.917-0.69,3.591-0.564,5.142c0.098,1.383,1.047,2.98,1.717,4.816c0.163,0.47,0.319,0.952,0.419,1.471
						c0.105,0.537,0.148,1.024,0.181,1.491c0.074,0.949,0.094,1.875,0.119,2.78c0.027,1.83,0.18,3.482,0.559,5.252l1.144,5.341
						c0.363,1.946,0.275,3.8,0.453,5.523c0.081,0.871,0.255,1.642,0.546,2.532l0.776,2.597l0.776,2.597
						c0.253,0.845,0.564,1.784,0.771,2.676c0.445,1.795,0.77,3.562,1.431,5.125c0.657,1.575,1.68,3.039,2.675,4.596
						c1.028,1.577,1.806,3.29,2.631,4.867c0.418,0.791,0.851,1.559,1.325,2.276c0.486,0.749,0.947,1.289,1.595,1.827
						c1.266,1.073,2.935,1.844,4.479,3.242c0.492,0.446,0.53,1.206,0.084,1.698c-0.446,0.492-1.206,0.53-1.698,0.084
						c-0.02-0.019-0.044-0.042-0.063-0.061c-1.089-1.136-2.712-2.052-4.185-3.384c-0.739-0.645-1.43-1.536-1.895-2.34
						c-0.498-0.821-0.925-1.659-1.328-2.491c-0.822-1.666-1.516-3.294-2.446-4.792c-0.915-1.534-1.978-3.082-2.728-4.874
						c-0.742-1.806-1.055-3.65-1.477-5.383c-0.406-1.694-1.019-3.438-1.541-5.196l-0.812-2.626
						c-0.289-0.836-0.529-1.844-0.621-2.788c-0.214-1.893-0.129-3.711-0.501-5.343l-1.285-5.302
						c-0.201-0.903-0.395-1.815-0.518-2.775c-0.12-0.946-0.178-1.88-0.228-2.793c-0.05-0.913-0.094-1.806-0.185-2.669
						c-0.047-0.439-0.111-0.858-0.197-1.21c-0.088-0.372-0.23-0.753-0.381-1.136c-0.317-0.77-0.731-1.556-1.137-2.416
						c-0.399-0.86-0.807-1.815-0.957-2.953c-0.248-2.096,0.182-4.025,0.327-5.71c0.086-0.88,0.058-1.515-0.065-2.419
						c-0.105-0.855-0.274-1.717-0.473-2.6c-0.198-0.884-0.435-1.783-0.639-2.765c-0.208-1.063-0.317-1.895-0.557-2.716
						c-0.105-0.412-0.246-0.794-0.392-1.166c-0.153-0.369-0.334-0.751-0.544-1.287c-0.403-1.112-0.665-2.206-0.995-3.19
						l-0.053-0.158c-0.66-1.971,0.403-4.103,2.374-4.762c1.97-0.66,4.103,0.403,4.762,2.374
						C183.481,63.007,183.427,63.931,183.101,64.734z"/>
				</g>
				<g>
					<path style="fill:#FF5452;" d="M251.435,64.665c-0.173,0.57-0.325,1.135-0.536,1.769c-0.209,0.608-0.484,1.322-0.822,1.885
						c-0.345,0.566-0.595,0.853-0.781,1.109c-0.184,0.254-0.343,0.542-0.478,0.879c-0.539,1.393-0.673,3.231-0.77,5.048
						c-0.107,1.827-0.105,3.717-0.479,5.647c-0.353,1.863-0.82,3.569-1.031,5.258c-0.474,3.599-0.868,7.224-1.534,10.803
						l-0.453,2.691c-0.074,0.44-0.16,0.93-0.204,1.268c-0.035,0.382-0.036,0.784-0.015,1.2c0.08,1.672,0.618,3.534,0.259,5.625
						c-0.407,1.973-1.258,3.626-1.91,5.264c-0.165,0.409-0.317,0.815-0.448,1.22l-0.183,0.608c-0.07,0.232-0.135,0.48-0.221,0.708
						c-0.324,0.933-0.769,1.776-1.207,2.58c-0.439,0.805-0.883,1.574-1.236,2.351c-0.357,0.755-0.578,1.586-0.832,2.457
						c-0.488,1.719-0.912,3.511-1.604,5.273c-0.694,1.741-1.549,3.377-2.391,4.985c-0.837,1.583-1.664,3.242-2.637,4.812
						c-0.474,0.79-0.966,1.569-1.474,2.336c-0.539,0.791-0.971,1.436-1.38,2.224c-0.829,1.527-1.513,3.34-3.005,4.896
						c-0.458,0.481-1.219,0.499-1.7,0.041c-0.481-0.458-0.499-1.219-0.041-1.7c0.019-0.02,0.044-0.044,0.064-0.063
						c1.115-1.008,1.909-2.593,2.85-4.202c0.454-0.806,1.062-1.647,1.572-2.331c0.52-0.723,1.027-1.455,1.51-2.201
						c0.971-1.488,1.796-3.055,2.689-4.652c0.883-1.574,1.728-3.143,2.378-4.767c0.647-1.607,1.075-3.345,1.585-5.104l0.404-1.323
						c0.144-0.449,0.326-0.923,0.521-1.353c0.389-0.875,0.846-1.68,1.264-2.468c0.419-0.788,0.811-1.56,1.073-2.342
						c0.072-0.196,0.119-0.388,0.178-0.589c0.064-0.233,0.126-0.467,0.201-0.694c0.142-0.457,0.304-0.901,0.474-1.333
						c0.668-1.723,1.477-3.34,1.741-4.943c0.244-1.522-0.25-3.253-0.428-5.175c-0.038-0.488-0.054-0.992-0.019-1.513
						c0.058-0.562,0.124-0.965,0.186-1.419l0.377-2.676c0.596-3.557,0.76-7.159,1.092-10.756c0.157-1.917,0.572-3.735,0.813-5.442
						c0.237-1.646,0.221-3.396,0.116-5.185c-0.1-1.798-0.409-3.602-0.371-5.793c0.03-0.552,0.066-1.151,0.193-1.748
						c0.112-0.599,0.26-1.128,0.236-1.409c-0.014-0.284-0.083-0.458-0.19-0.749c-0.091-0.264-0.231-0.605-0.398-0.94
						c-0.954-1.911-0.178-4.234,1.734-5.188c1.911-0.954,4.234-0.178,5.188,1.734c0.458,0.918,0.517,1.931,0.243,2.841
						L251.435,64.665z"/>
				</g>
				<g>
					<path style="fill:#FF5452;" d="M220.083,79.986c-0.363,0.729-0.652,1.471-0.954,2.246l-0.865,2.043
						c-0.239,0.591-0.412,1.229-0.554,1.888c-0.081,0.327-0.125,0.664-0.187,0.998c-0.056,0.278-0.07,0.507-0.07,0.806
						c0.013,1.164,0.405,2.543,0.588,4.018c0.096,0.741,0.152,1.516,0.114,2.309c-0.045,0.76-0.09,1.343-0.105,2.045
						c-0.038,1.354-0.031,2.752-0.097,4.172c-0.081,1.459-0.215,2.762-0.248,4.151c-0.056,1.377-0.102,2.774-0.209,4.181
						c-0.102,1.42-0.311,2.824-0.519,4.189c-0.213,1.375-0.39,2.702-0.482,4.073l-0.297,4.146l-0.149,2.073
						c-0.022,0.655-0.136,1.499-0.337,2.19c-0.391,1.432-0.998,2.706-1.405,3.95c-0.211,0.636-0.335,1.194-0.403,1.852l-0.225,2.072
						l-0.451,4.147c-0.067,0.718-0.149,1.337-0.16,1.977c-0.015,0.645,0.016,1.302,0.064,1.977c0.071,1.357,0.38,2.736,0.037,4.488
						c-0.128,0.652-0.76,1.077-1.413,0.95c-0.652-0.128-1.077-0.76-0.95-1.413c0.008-0.041,0.018-0.081,0.03-0.119l0.009-0.028
						c0.295-0.964,0.21-2.388,0.19-3.782c-0.014-0.708-0.013-1.435,0.042-2.172c0.05-0.743,0.191-1.492,0.281-2.149l0.57-4.092
						l0.285-2.047c0.077-0.719,0.259-1.517,0.496-2.191c0.471-1.38,1.069-2.615,1.414-3.855c0.179-0.64,0.271-1.174,0.297-1.902
						l0.121-2.069l0.242-4.138c0.065-1.393,0.265-2.81,0.417-4.177c0.161-1.377,0.312-2.72,0.36-4.064
						c0.055-1.356,0.052-2.727,0.06-4.116c-0.006-1.379,0.071-2.837,0.056-4.144c-0.015-1.347-0.101-2.716-0.144-4.129
						c-0.027-0.682-0.016-1.482-0.015-2.105c-0.007-0.59-0.083-1.198-0.201-1.824c-0.233-1.261-0.649-2.548-0.933-4.139
						c-0.077-0.388-0.106-0.852-0.134-1.266l-0.072-1.074l-0.162-2.243c-0.045-0.808-0.078-1.483-0.253-2.062
						c-0.151-0.601-0.367-1.241-0.677-1.895c-0.932-1.966-0.095-4.315,1.871-5.248c1.966-0.932,4.316-0.095,5.248,1.871
						c0.536,1.13,0.487,2.387-0.025,3.428L220.083,79.986z"/>
				</g>
				<g>
					<path style="fill:#FF5452;" d="M200.204,80.078c-0.341,0.728-0.608,1.467-0.87,2.212c-0.282,0.769-0.52,1.368-0.685,1.96
						c-0.173,0.609-0.278,1.277-0.355,1.951c-0.048,0.336-0.061,0.679-0.091,1.019l-0.063,1.079
						c-0.135,2.857-0.186,5.417,0.079,8.192l0.292,4.112c0.102,1.34,0.201,2.851,0.215,4.21c0.029,1.384,0.057,2.729,0.215,4.038
						c0.126,1.224,0.609,2.442,1.104,3.741c0.481,1.306,1.052,2.646,1.163,4.243c0.082,1.555-0.239,2.943-0.362,4.257
						c-0.066,0.656-0.092,1.291-0.022,1.887c0.065,0.579,0.265,1.178,0.518,1.766c0.508,1.184,1.252,2.339,1.892,3.636
						c0.672,1.296,1.048,2.838,1.234,4.22c0.202,1.401,0.319,2.755,0.651,3.975c0.089,0.309,0.184,0.579,0.306,0.892l0.375,0.981
						l0.72,1.946c0.482,1.283,0.997,2.532,1.589,3.7c0.3,0.592,0.063,1.316-0.529,1.616c-0.592,0.3-1.316,0.063-1.616-0.529
						c-0.013-0.025-0.026-0.054-0.037-0.08c-0.561-1.342-0.98-2.698-1.393-4.026l-0.617-1.975l-0.315-0.972
						c-0.113-0.336-0.226-0.725-0.312-1.084c-0.671-2.93-0.33-5.663-1.568-7.928c-0.567-1.187-1.319-2.368-1.894-3.73
						c-0.287-0.681-0.522-1.408-0.623-2.202c-0.101-0.776-0.073-1.529-0.011-2.247c0.126-1.431,0.395-2.776,0.305-3.99
						c-0.095-1.172-0.578-2.439-1.113-3.687c-0.526-1.257-1.14-2.613-1.361-4.143c-0.223-1.428-0.3-2.847-0.378-4.222
						c-0.039-0.688-0.08-1.366-0.141-2.03c-0.067-0.649-0.169-1.323-0.255-2.021l-0.536-4.132l-0.266-2.07
						c-0.075-0.711-0.13-1.422-0.171-2.128c-0.091-1.411-0.088-2.812-0.218-4.154c-0.039-0.337-0.067-0.663-0.127-0.991
						l-0.173-1.051l-0.394-2.19c-0.228-1.672-0.501-2.759-1.159-4.102c-0.951-1.939-0.15-4.282,1.789-5.233
						c1.939-0.951,4.282-0.15,5.234,1.789c0.54,1.102,0.515,2.333,0.037,3.366L200.204,80.078z"/>
				</g>
			</g>
			<g>
				<path style="fill:#F2D734;" d="M208.729,124.074c-3.615,0.301,4.012,24.359,0,32.67c7.021-5.732,14.759-26.222,14.042-31.81
					c-0.717-5.588-5.77,1.816-7.92,1.959C212.702,127.036,212.168,123.787,208.729,124.074z"/>
				<path style="fill:#F2D734;" d="M230.939,125.507c-2.736,0.098-2.866,4.442-4.299,11.32c-1.433,6.878-9.314,16.192-9.314,16.192
					l4.299,3.009c0,0,8.024-12.192,13.326-15.267c5.302-3.074,2.723-6.8-1.29-6.37C229.649,134.82,234.951,125.363,230.939,125.507z
					"/>
				<path style="fill:#F2D734;" d="M187.522,128.086c-3.331-0.119-2.362,11.033,17.59,21.78c-2.831-8.741-5.29-13.253-5.84-17.768
					c-0.716-5.875-4.872-1.29-6.448-1.576C191.247,130.235,191.534,128.229,187.522,128.086z"/>
				<path style="fill:#ECB32A;" d="M214.586,129.196c0.118,1.917,0.134,3.827,0.101,5.742c-0.059,1.913-0.142,3.828-0.347,5.735
					c-0.194,1.907-0.434,3.816-0.857,5.698c-0.409,1.88-0.926,3.76-1.831,5.503c-0.081,0.156-0.274,0.217-0.43,0.136
					c-0.151-0.078-0.213-0.26-0.145-0.413l0.003-0.006c0.76-1.699,1.167-3.552,1.526-5.397c0.337-1.853,0.59-3.73,0.752-5.617
					c0.163-1.886,0.317-3.777,0.385-5.674c0.096-1.894,0.166-3.797,0.204-5.691c0.001-0.176,0.145-0.318,0.321-0.317
					C214.437,128.897,214.573,129.032,214.586,129.196z"/>
				<path style="fill:#ECB32A;" d="M192.616,133.779c0.716,1.51,1.613,2.981,2.552,4.39c0.926,1.427,1.969,2.774,3.025,4.109
					c1.086,1.312,2.22,2.585,3.414,3.804c1.188,1.224,2.436,2.391,3.708,3.538l0.009,0.009c0.131,0.118,0.141,0.32,0.023,0.45
					c-0.114,0.127-0.308,0.14-0.438,0.033c-0.67-0.547-1.354-1.079-2.014-1.64c-0.643-0.58-1.307-1.14-1.918-1.756
					c-1.269-1.185-2.415-2.494-3.545-3.813c-1.11-1.338-2.118-2.758-3.056-4.223c-0.911-1.487-1.743-3.008-2.355-4.674
					c-0.061-0.165,0.024-0.348,0.189-0.409c0.156-0.057,0.327,0.015,0.397,0.161L192.616,133.779z"/>
				<path style="fill:#ECB32A;" d="M231.115,137.469c-0.627,1.628-1.354,3.199-2.133,4.751c-0.804,1.537-1.633,3.065-2.558,4.536
					c-0.926,1.47-1.899,2.915-2.966,4.292c-1.069,1.376-2.239,2.675-3.501,3.881c-0.127,0.122-0.329,0.117-0.451-0.01
					c-0.117-0.122-0.117-0.313-0.005-0.436l0.006-0.006c1.156-1.257,2.221-2.592,3.236-3.966c0.985-1.397,1.954-2.807,2.842-4.272
					c0.878-1.47,1.757-2.942,2.562-4.457c0.824-1.502,1.625-3.028,2.38-4.561l0.003-0.006c0.078-0.158,0.269-0.223,0.427-0.145
					C231.107,137.142,231.173,137.317,231.115,137.469z"/>
			</g>
			<path style="fill:#A060D1;" d="M212.57,138.058c-5.941,0-25.576,17.299-25.026,26.071s7.668,21.3,28.968,21.3
				s29.037-14.353,27.98-20.042C243.435,159.699,222.089,138.058,212.57,138.058z"/>
			<path style="fill:#A060D1;" d="M209.536,202.491c0.588,0.515,4.192,9.121,7.135,19.714c0.809,2.133,5.781,0.703,6.958-0.621
				c1.177-1.324,1.281-19.24,5.253-22.256c-0.79-1.143-7.328-1.613-10.372,2.942C215.995,200.651,211.18,200.338,209.536,202.491z"
				/>
		</g>
		<path style="fill:#7B3EAB;" d="M155.61,235.873c0,0,12.566,19.765,11.196,27.448c-4.026,2.275-17.324-18.216-21.367-20.103
			L155.61,235.873z"/>
		<path style="fill:#A060D1;" d="M167.79,249.774c-0.142,0.769,1.885,6.967,6.155,17.098c0.69,2.175-3.604,6.926-5.349,6.619
			c-1.745-0.307-12.95-14.287-17.936-14.185c-0.09-1.386,4.743-5.814,9.958-4.133C161.585,252.342,165.165,249.107,167.79,249.774z"
			/>
		<g>
			<path style="fill:#7B3EAB;" d="M105.46,163.713c0.86-1.422,19.946-5.159,33.393,16.399c13.447,21.558-34.161,1.373-34.161,1.373
				S100.603,171.743,105.46,163.713z"/>
			<g>
				<path style="fill:#8048AB;" d="M131.26,152.849c2.208-1.652,25.909,7.254,33.318,26.358c7.409,19.104,3.355,47.374-0.792,53.446
					C159.639,238.726,131.26,152.849,131.26,152.849z"/>
				<path style="fill:#7B3EAB;" d="M131.26,152.849c3.485-2.608,31.274,20.5,32.527,79.805
					C163.786,232.654,117.581,188.822,131.26,152.849z"/>
			</g>
			<path style="fill:#7B3EAB;" d="M87.424,177.21c-1.607,0.424-10.576,17.681,6.315,36.662s10.952-32.387,10.952-32.387
				S96.498,174.815,87.424,177.21z"/>
			<g>
				<path style="fill:#8048AB;" d="M69.725,198.899c-2.207,1.652-0.348,26.903,15.891,39.4c16.239,12.497,44.504,16.58,51.5,14.314
					C144.111,250.347,69.725,198.899,69.725,198.899z"/>
				<path style="fill:#7B3EAB;" d="M69.725,198.899c-3.485,2.608,10.847,35.786,67.391,53.714
					C137.115,252.613,108.095,195.921,69.725,198.899z"/>
			</g>
			<g>
				<g>
					<path style="fill:#FF5452;" d="M115.698,156.281c-0.156,0.659-0.218,1.185-0.215,1.576c-0.002,0.214,0.073,0.459,0.267,0.835
						c0.198,0.361,0.45,0.84,0.647,1.283c0.396,0.911,0.63,1.758,0.833,2.566l0.152,0.626c0.062,0.26,0.111,0.514,0.135,0.754
						c0.054,0.487,0.08,0.93,0.074,1.35c-0.014,1.665-0.102,3.062,0.14,4.305c0.062,0.302,0.143,0.607,0.242,0.868
						c0.085,0.241,0.229,0.498,0.391,0.759c0.339,0.525,0.804,1.066,1.296,1.633c0.494,0.568,1.024,1.173,1.508,1.865
						c0.485,0.673,0.925,1.524,1.161,2.345c0.487,1.639,0.565,3.168,0.889,4.541c0.153,0.697,0.346,1.31,0.647,1.923
						c0.306,0.641,0.664,1.275,1.043,1.909c0.758,1.27,1.607,2.544,2.345,3.93c0.625,1.237,1.616,2.288,2.619,3.449
						c0.501,0.579,1.006,1.187,1.464,1.854c0.467,0.657,0.853,1.495,1.086,2.248c0.482,1.529,0.683,3.035,1.266,4.237
						c0.522,1.176,1.629,1.985,2.888,2.773c0.626,0.396,1.29,0.789,1.945,1.264c0.655,0.445,1.327,1.078,1.814,1.696
						c1.027,1.242,1.785,2.577,2.671,3.67c0.876,1.115,1.906,1.807,3.235,2.337c1.307,0.535,2.799,0.872,4.33,1.598
						c0.6,0.285,0.856,1.002,0.571,1.602c-0.285,0.6-1.002,0.855-1.601,0.571c-0.026-0.012-0.055-0.028-0.08-0.042
						c-1.16-0.661-2.604-1.126-4.063-1.806c-0.729-0.343-1.47-0.742-2.144-1.277c-0.683-0.531-1.259-1.174-1.736-1.819
						c-0.976-1.288-1.682-2.618-2.557-3.728c-0.791-1.122-1.976-1.809-3.289-2.647c-0.645-0.418-1.314-0.858-1.934-1.427
						c-0.614-0.552-1.195-1.281-1.538-2.062c-0.7-1.55-0.897-3.087-1.357-4.425c-0.76-2.583-3.544-4.309-5.158-7.202
						c-0.723-1.26-1.59-2.478-2.424-3.775c-0.416-0.649-0.826-1.318-1.194-2.029c-0.392-0.731-0.682-1.56-0.875-2.333
						c-0.397-1.56-0.558-3.073-1.023-4.311c-0.398-1.193-1.307-2.134-2.365-3.23c-0.525-0.548-1.088-1.12-1.612-1.837
						c-0.257-0.366-0.51-0.758-0.709-1.217c-0.192-0.436-0.327-0.857-0.44-1.289c-0.435-1.717-0.336-3.374-0.53-4.718
						c-0.054-0.333-0.105-0.644-0.207-0.896c-0.044-0.132-0.098-0.241-0.15-0.341c-0.054-0.115-0.154-0.296-0.234-0.438
						c-0.334-0.601-0.713-1.145-1.132-1.507c-0.207-0.195-0.417-0.316-0.708-0.53c-0.292-0.202-0.706-0.535-1.119-0.955
						c-0.827-0.877-1.407-1.789-1.988-2.576l-0.37-0.501c-1.309-1.773-0.933-4.271,0.84-5.581c1.773-1.309,4.271-0.933,5.58,0.84
						C115.747,153.967,115.952,155.183,115.698,156.281z"/>
				</g>
				<g>
					<path style="fill:#FF5452;" d="M73.263,169.058c0.623,0.545,1.27,1.009,1.961,1.469l2.01,1.336
						c0.637,0.413,1.286,0.786,1.947,1.14c0.657,0.359,1.248,0.632,1.952,0.9c1.371,0.525,2.858,0.95,4.31,1.551
						c0.681,0.268,1.576,0.673,2.242,1.155c0.689,0.469,1.289,0.967,1.865,1.435c1.14,0.935,2.24,1.788,3.401,2.171
						c1.235,0.417,2.747,0.533,4.316,0.918c0.772,0.185,1.628,0.512,2.329,0.917c0.699,0.39,1.346,0.826,1.973,1.264
						c1.249,0.881,2.41,1.789,3.629,2.521c1.226,0.743,2.585,1.344,3.937,2.038c1.36,0.669,2.719,1.52,3.928,2.416
						c1.23,0.895,2.408,1.833,3.593,2.738l0.893,0.687c0.319,0.247,0.619,0.512,0.908,0.782c0.578,0.542,1.095,1.117,1.596,1.688
						l1.466,1.675c0.489,0.548,0.991,0.972,1.578,1.57c1.105,1.144,1.988,2.418,2.86,3.611c0.879,1.222,1.755,2.201,2.867,3.212
						c1.073,1.017,2.314,2.079,3.175,3.659c0.32,0.582,0.107,1.313-0.475,1.633c-0.582,0.32-1.313,0.107-1.633-0.475
						c-0.015-0.027-0.032-0.061-0.044-0.089c-0.496-1.111-1.461-2.157-2.5-3.235c-0.522-0.542-1.06-1.104-1.566-1.725
						c-0.509-0.633-0.937-1.259-1.365-1.887c-0.855-1.244-1.655-2.459-2.604-3.495c-0.445-0.484-1.064-1.054-1.556-1.638
						l-1.475-1.713c-0.481-0.557-0.961-1.098-1.471-1.583c-0.255-0.243-0.515-0.476-0.785-0.688l-0.879-0.688
						c-1.177-0.929-2.349-1.841-3.551-2.688c-1.207-0.867-2.398-1.595-3.731-2.234c-1.32-0.648-2.697-1.268-4.063-2.021
						c-1.372-0.767-2.6-1.669-3.823-2.47c-0.611-0.399-1.22-0.779-1.839-1.097c-0.608-0.319-1.169-0.51-1.854-0.659
						c-1.342-0.305-2.847-0.34-4.49-0.766c-1.726-0.483-3.066-1.479-4.282-2.357c-0.609-0.445-1.187-0.869-1.756-1.211
						c-0.575-0.36-1.067-0.542-1.787-0.792c-1.346-0.462-2.744-0.84-4.234-1.18l-2.297-0.537c-0.74-0.169-1.489-0.328-2.247-0.453
						c-0.77-0.131-1.476-0.227-2.196-0.222c-0.727-0.017-1.507,0.002-2.312,0.102c-2.105,0.261-4.024-1.235-4.285-3.34
						c-0.261-2.105,1.235-4.024,3.34-4.285c1.126-0.139,2.198,0.223,2.992,0.912L73.263,169.058z"/>
				</g>
			</g>
			<path style="fill:#8F56BB;" d="M125.235,166.111c1.51-1.13,21.767,5.168,28.517,14.13c10.39,13.793,18.641,51.954,2.696,63.886
				C153.881,246.048,109.899,177.587,125.235,166.111z"/>
			<path style="fill:#8F56BB;" d="M84.147,196.859c-1.51,1.13-1.18,22.341,5.513,31.345c10.303,13.858,44.587,32.537,60.532,20.605
				C152.759,246.887,99.483,185.382,84.147,196.859z"/>
			<path style="fill:#A060D1;" d="M154.046,247.438c-3.387,2.534-11.225,3.951-34.592-17.493
				c-23.367-21.444-18.898-45.366-14.763-48.46c3.751-2.807,28.346-0.635,42.329,27.831
				C161.003,237.783,157.433,244.903,154.046,247.438z"/>
			<g>
				<path style="fill:#8F56BB;" d="M133.149,202.703c2.894,2.896,5.514,6.029,7.939,9.316c2.433,3.281,4.644,6.727,6.667,10.283
					c2.022,3.557,3.751,7.285,5.231,11.102c1.481,3.821,2.51,7.813,3.186,11.834c0.023,0.139-0.07,0.27-0.209,0.293
					c-0.127,0.021-0.248-0.055-0.285-0.175l-0.003-0.01c-1.209-3.868-2.568-7.648-4.204-11.321
					c-1.671-3.653-3.428-7.266-5.453-10.742c-1.987-3.494-4.119-6.909-6.35-10.264c-2.254-3.336-4.569-6.656-7.021-9.862
					l-0.007-0.009c-0.114-0.149-0.085-0.362,0.064-0.476C132.839,202.568,133.03,202.584,133.149,202.703z"/>
				<path style="fill:#8F56BB;" d="M131.541,222.413c1.835,2.132,3.691,4.246,5.569,6.322c1.892,2.064,3.799,4.106,5.795,6.052
					c1.994,1.946,4.057,3.813,6.215,5.566c2.185,1.716,4.46,3.302,6.903,4.706l0.007,0.004c0.122,0.07,0.165,0.226,0.094,0.349
					c-0.061,0.107-0.188,0.152-0.3,0.116c-2.729-0.882-5.287-2.262-7.676-3.855c-2.376-1.618-4.56-3.487-6.636-5.454
					c-2.047-1.998-3.961-4.122-5.728-6.358c-1.765-2.238-3.412-4.562-4.804-7.065c-0.091-0.164-0.032-0.371,0.132-0.463
					c0.144-0.08,0.32-0.045,0.423,0.075L131.541,222.413z"/>
				<path style="fill:#8F56BB;" d="M117.118,217.465c2.199,2.49,4.459,4.93,6.705,7.361c2.271,2.409,4.546,4.812,6.936,7.085
					c1.176,1.157,2.391,2.272,3.62,3.366l1.854,1.632l1.914,1.555c2.591,2.017,5.264,3.935,8.206,5.468l0.006,0.003
					c0.125,0.065,0.174,0.219,0.108,0.344c-0.059,0.112-0.189,0.163-0.305,0.125c-3.217-1.046-6.209-2.714-8.991-4.624
					c-2.808-1.893-5.336-4.136-7.795-6.429c-2.438-2.32-4.713-4.796-6.858-7.375c-2.15-2.576-4.154-5.264-5.948-8.109
					c-0.1-0.159-0.053-0.369,0.106-0.469c0.143-0.09,0.328-0.061,0.436,0.062L117.118,217.465z"/>
				<path style="fill:#8048AB;" d="M149.011,185.088c2.228,3.21,4.21,6.61,5.854,10.179c1.664,3.56,3.001,7.278,4.016,11.083
					c2.006,7.615,2.646,15.593,1.792,23.363c-0.015,0.14-0.141,0.241-0.281,0.226c-0.128-0.014-0.223-0.122-0.227-0.247
					c-0.276-7.76-1.188-15.417-3.212-22.827c-0.987-3.707-2.242-7.34-3.681-10.905c-1.457-3.559-3.087-7.059-4.841-10.523
					c-0.086-0.167-0.02-0.372,0.147-0.457C148.729,184.901,148.915,184.951,149.011,185.088z"/>
				<path style="fill:#8048AB;" d="M133.971,180.313c2.41,1.797,4.622,3.816,6.693,5.985c2.074,2.163,4.011,4.47,5.733,6.944
					c1.69,2.49,3.302,5.068,4.42,7.903c1.146,2.804,1.915,5.815,1.899,8.847c-0.001,0.141-0.115,0.255-0.257,0.254
					c-0.125-0.001-0.228-0.091-0.25-0.209l-0.002-0.009c-0.533-2.9-1.613-5.602-2.883-8.203l-1.011-1.926l-1.126-1.869
					c-0.361-0.629-0.784-1.227-1.181-1.837c-0.4-0.609-0.798-1.219-1.242-1.8c-1.666-2.397-3.515-4.676-5.395-6.933
					c-1.903-2.234-3.834-4.475-5.846-6.635l-0.006-0.007c-0.128-0.137-0.12-0.353,0.017-0.48
					C133.658,180.223,133.842,180.217,133.971,180.313z"/>
				<path style="fill:#8048AB;" d="M97.322,207.38c1.134,2.44,2.354,4.845,3.635,7.19c1.302,2.336,2.663,4.63,4.186,6.807
					c1.525,2.173,3.197,4.225,5.03,6.132c1.887,1.852,3.951,3.495,6.252,4.913l0.01,0.006c0.12,0.074,0.157,0.231,0.083,0.351
					c-0.064,0.104-0.19,0.146-0.301,0.107c-2.611-0.905-5.021-2.39-7.158-4.177c-2.101-1.83-3.926-3.945-5.55-6.186
					c-1.586-2.269-2.954-4.674-4.104-7.171c-1.145-2.501-2.116-5.071-2.729-7.765c-0.042-0.183,0.073-0.365,0.256-0.407
					c0.159-0.036,0.318,0.046,0.384,0.188L97.322,207.38z"/>
				<path style="fill:#8048AB;" d="M106.884,235.841c2.307,1.644,4.731,3.054,7.238,4.307c2.512,1.24,5.094,2.339,7.733,3.295
					c2.632,0.975,5.323,1.8,8.043,2.531c2.725,0.719,5.479,1.323,8.287,1.784c0.14,0.021,0.236,0.151,0.216,0.29
					c-0.018,0.122-0.123,0.211-0.242,0.218c-2.886,0.128-5.779-0.175-8.618-0.693c-2.843-0.515-5.637-1.289-8.366-2.254
					c-2.72-0.987-5.378-2.172-7.883-3.644c-2.501-1.464-4.877-3.201-6.856-5.325c-0.128-0.138-0.121-0.353,0.017-0.482
					C106.573,235.756,106.755,235.749,106.884,235.841z"/>
				<path style="fill:#753BA3;" d="M153.567,169.385c4.33,4.058,7.415,9.359,9.445,14.924c1.991,5.586,3.045,11.558,2.623,17.453
					c-0.01,0.141-0.132,0.247-0.273,0.237c-0.124-0.009-0.222-0.108-0.236-0.228c-0.34-2.895-0.862-5.736-1.511-8.538
					c-0.669-2.797-1.476-5.555-2.478-8.239c-1.977-5.383-4.654-10.465-8.076-15.158c-0.112-0.151-0.08-0.364,0.071-0.476
					C153.265,169.261,153.449,169.276,153.567,169.385z"/>
				<path style="fill:#753BA3;" d="M79.54,224.38c3.187,3.499,6.531,6.816,10.15,9.774c1.788,1.51,3.693,2.863,5.642,4.156
					c1.943,1.319,4.022,2.388,6.124,3.524l0.013,0.007c0.124,0.067,0.17,0.222,0.103,0.346c-0.057,0.105-0.177,0.154-0.287,0.126
					c-2.336-0.59-4.653-1.417-6.782-2.59c-2.151-1.135-4.189-2.487-6.073-4.021c-1.882-1.536-3.651-3.207-5.241-5.034
					c-1.591-1.827-3.045-3.764-4.211-5.909c-0.09-0.165-0.029-0.372,0.136-0.462c0.14-0.076,0.311-0.044,0.414,0.07L79.54,224.38z"
					/>
			</g>
		</g>
		<g>
			<path style="fill:#B9D082;" d="M304.703,196.997c-22.315,17.727-39.756,67.047-45.461,95.356
				c0.84-20.844,2.401-41.588,4.005-62.444c0.136-5.812-9.062-5.933-9.006-0.06c-1.393,69.199-3.495,138.938,3.325,207.964
				c0.904,5.689,9.944,4.292,8.879-1.517c-2.891-16.926-4.94-34.015-6.206-51.172c-1.499-28.536-4.805-57.738,2.922-85.65
				C271.238,263.454,285.107,227.616,304.703,196.997z"/>
			<path style="fill:#8F56BB;" d="M253.889,238.393c0,0-1.785,16.81,4.059,21.983c4.568-0.717,3.409-14.598,5.407-18.588
				L253.889,238.393z"/>
			<path style="fill:#A060D1;" d="M251.611,249.551c0.502,0.599,1.187,2.248,2.466,13.168c0.472,2.232,5.302,1.8,6.669,0.672
				c0.953-2.802-0.578-11.471,3.811-13.84c-0.605-1.251-4.483-1.84-5.967,0.409C256.353,247.974,253.566,247.676,251.611,249.551z"
				/>
			<g>
				<path style="fill:#8F56BB;" d="M275.994,163.62c-1.953-1.467-34.362,18.46-22.105,74.773
					C253.889,238.393,265.855,185.065,275.994,163.62z"/>
				<path style="fill:#7B3EAB;" d="M275.994,163.62c1.438,1.029-0.828,17.629-0.828,17.629l-8.53,6.36c0,0-0.655-2.346-0.548-3.134
					C266.865,178.755,275.994,163.62,275.994,163.62z"/>
				<path style="fill:#8F56BB;" d="M263.356,241.788c4.869-11.045,20.09-27.136,26.891-39.753
					c6.801-12.616,5.729-21.728,2.004-30.961l-35.029,70.714H263.356z"/>
				<path style="fill:#A060D1;" d="M291.124,168.759c-2.655-1.773-21.325-1.067-32.304,31.654
					c-10.978,32.72-2.051,51.583-0.273,51.694c1.777,0.11,0.535-20.089,19.809-44.392
					C288.848,194.484,293.994,170.676,291.124,168.759z"/>
			</g>
		</g>
		<g>
			<path style="fill:#B9D082;" d="M348.471,183.184c-6.232-4.822-12.949,9.938-16.698,13.753
				c-26.872,40.066-38.614,87.817-49.828,134.108c2.808-27.414,5.728-54.849,10.944-81.942c-2.821-6.755-9.217,25.294-9.898,27.75
				c-5.08,25.792-6.999,52.138-6.5,78.391c-3.131,13.896-6.196,28.474-9.419,42.281c-2.541,10.576-5.145,21.12-8.467,31.29
				c-1.528,5.582,7.344,7.963,8.723,2.242c9.454-38.261,15.146-79.813,24.829-117.952c2.644-1.778,6.32-5.629,8.357-13.809
				c3.423-13.747,20.969-38.743,18.579-39.151c-1.701-0.291-9.937,7.183-16.795,16.432c8.468-26.419,18.978-52.73,35.959-74.871
				c1.354-1.855,3.52-4.262,4.985-6.062C345.958,192.144,353.383,187.852,348.471,183.184z"/>
			<g>
				<path style="fill:#7B3EAB;" d="M449.206,160.986c-0.442-6.19-23.432-23.183-38.906-18.076s-36.456,30.801-63.812,42.687
					c0,0,31.325-8.358,52.464-0.74C417.971,191.71,442.575,190.902,449.206,160.986z"/>
				<path style="fill:#8048AB;" d="M381.415,103.824c4.568,0,24.022,27.337,17.095,42.618c-6.926,15.28-41.559,37.091-49.959,39.744
					l-2.063-1.33c0,0,5.786-13.12,6.283-28.811C353.267,140.354,367.268,103.824,381.415,103.824z"/>
				<path style="fill:#8048AB;" d="M328.722,112.648c6.722-6.092,17.177,17.685,17.767,45.833c0.589,28.148,0,27.116,0,27.116
					s-17.242,11.79-24.906-6.632c-7.663-18.421-6.927-24.021-0.884-30.358C320.698,148.606,312.134,127.68,328.722,112.648z"/>
				<path style="fill:#8F56BB;" d="M376.11,180.733c14.465-0.073,52.464,8.105,53.054,31.832c-6.779,12.969-36.695,9.137-50.401,0
					c-13.706-9.137-32.274-24.464-32.274-24.464S347.078,180.881,376.11,180.733z"/>
				<path style="fill:#8F56BB;" d="M348.109,188.249c3.095,10.758,21.516,23.235,21.516,23.235s-32.274,14.492-46.717-13.951
					c0,0,14.575-1.894,19.453-8.221C347.24,182.986,348.109,188.249,348.109,188.249z"/>
				<path style="fill:#A060D1;" d="M369.626,211.484c4.716,3.734,4.568,10.071-9.137,11.692
					c-13.706,1.621-17.937-5.523-23.874-6.484c-5.938-0.961-21.143-10.135-13.706-19.158c0,0,11.937,8.645,19.895,3.291
					C342.804,200.825,349.288,214.235,369.626,211.484z"/>
				<path style="fill:#8F56BB;" d="M320.698,148.606c0,0,4.228,18.161,10.677,16.945c0,0-3.533,22.645,2.168,23.688
					c0,0-13.488,2.901-17.543-18.097S320.698,148.606,320.698,148.606z"/>
				<g>
					<path style="fill:#8048AB;" d="M347.241,186.859c2.339-0.421,4.688-0.654,7.044-0.877c2.358-0.183,4.721-0.297,7.088-0.347
						c4.734-0.099,9.479,0.114,14.197,0.651c4.708,0.602,9.401,1.467,13.952,2.879c1.133,0.366,2.246,0.798,3.367,1.193
						c1.13,0.37,2.216,0.866,3.293,1.376c2.185,0.945,4.21,2.224,6.212,3.477c0.119,0.074,0.155,0.231,0.081,0.35
						c-0.068,0.109-0.207,0.149-0.321,0.096l-0.025-0.012c-1.069-0.49-2.126-0.987-3.172-1.498
						c-1.024-0.553-2.163-0.871-3.242-1.297l-1.626-0.627c-0.539-0.216-1.111-0.346-1.665-0.523
						c-1.118-0.323-2.223-0.683-3.347-0.976c-4.517-1.118-9.107-1.912-13.736-2.455c-4.632-0.535-9.298-0.772-13.971-0.91
						c-2.337-0.074-4.679-0.08-7.02-0.027c-2.343-0.007-4.69,0.095-7.026,0.2l-0.008,0c-0.187,0.008-0.346-0.137-0.354-0.324
						C346.955,187.036,347.077,186.888,347.241,186.859z"/>
					<path style="fill:#8048AB;" d="M353.17,188.367c4.134,0.841,8.205,1.917,12.228,3.161c4.026,1.236,8.003,2.633,11.924,4.185
						c7.798,3.156,15.505,6.855,22.207,12.031c0.111,0.086,0.132,0.246,0.046,0.358c-0.079,0.103-0.225,0.126-0.334,0.062
						c-3.622-2.107-7.357-3.955-11.13-5.725c-3.793-1.73-7.643-3.337-11.524-4.87c-3.881-1.538-7.806-2.968-11.737-4.391
						c-3.94-1.394-7.887-2.804-11.852-4.155l-0.005-0.002c-0.177-0.061-0.272-0.253-0.212-0.431
						C352.836,188.427,353.005,188.333,353.17,188.367z"/>
					<path style="fill:#8048AB;" d="M345.566,192.014c-0.085,1.187-0.537,2.253-1.168,3.218c-0.633,0.96-1.448,1.815-2.399,2.472
						c-0.958,0.639-2.002,1.155-3.104,1.424c-0.536,0.18-1.11,0.21-1.657,0.298c-0.559,0.034-1.119,0.025-1.67-0.023
						c-0.143-0.013-0.25-0.139-0.237-0.282c0.008-0.091,0.061-0.166,0.136-0.207l0.027-0.014c0.488-0.26,0.978-0.435,1.45-0.649
						c0.462-0.238,0.941-0.406,1.377-0.656c0.905-0.432,1.723-0.972,2.521-1.517c0.781-0.572,1.509-1.205,2.186-1.913
						c0.673-0.705,1.308-1.498,1.886-2.331l0.027-0.04c0.108-0.156,0.323-0.195,0.479-0.087
						C345.522,191.779,345.574,191.898,345.566,192.014z"/>
					<path style="fill:#8048AB;" d="M347.621,193.473c0.192,1.432,0.612,2.809,1.108,4.158c0.513,1.341,1.107,2.649,1.82,3.88
						c0.696,1.241,1.516,2.399,2.451,3.456c0.945,1.051,2.025,1.974,3.303,2.748l0.005,0.003c0.122,0.074,0.161,0.233,0.087,0.356
						c-0.056,0.092-0.161,0.137-0.261,0.122c-1.561-0.241-3.036-1.02-4.262-2.04c-1.241-1.018-2.24-2.289-3.052-3.646
						c-0.792-1.371-1.401-2.84-1.756-4.378c-0.351-1.526-0.516-3.151-0.117-4.727c0.046-0.183,0.232-0.294,0.415-0.248
						c0.139,0.035,0.237,0.151,0.255,0.285L347.621,193.473z"/>
					<path style="fill:#753BA3;" d="M389.585,131.857c0.699,2.488,0.804,5.132,0.532,7.714c-0.318,2.584-1.048,5.101-2.028,7.498
						c-1.983,4.803-4.996,9.071-8.357,12.934c-3.404,3.841-7.204,7.302-11.297,10.354c-2.049,1.522-4.154,2.966-6.327,4.298
						c-2.196,1.295-4.428,2.533-6.768,3.542c-0.129,0.056-0.279-0.004-0.335-0.133c-0.051-0.119-0.003-0.257,0.106-0.322
						c2.171-1.283,4.297-2.626,6.335-4.099c2.059-1.439,4.06-2.957,5.988-4.56c3.851-3.208,7.526-6.629,10.797-10.394
						c3.274-3.751,6.184-7.836,8.279-12.309c1.044-2.234,1.845-4.583,2.27-7.006c0.476-2.416,0.513-4.91,0.142-7.373
						c-0.029-0.185,0.098-0.359,0.283-0.388C389.377,131.587,389.538,131.695,389.585,131.857z"/>
					<path style="fill:#753BA3;" d="M366.439,126.855c-0.672,1.316-1.544,2.475-2.074,3.84c-0.296,0.661-0.66,1.284-0.902,1.967
						l-0.776,2.019c-0.915,2.733-1.668,5.521-2.12,8.382c-0.471,2.855-0.738,5.749-0.869,8.661c-0.102,2.909-0.121,5.85,0.058,8.779
						l0.001,0.012c0.009,0.141-0.098,0.261-0.239,0.27c-0.124,0.008-0.233-0.076-0.263-0.192c-0.735-2.906-1.096-5.881-1.195-8.874
						c-0.107-2.993,0.088-6.001,0.537-8.979c0.471-2.976,1.31-5.903,2.471-8.694c1.165-2.798,2.863-5.355,4.834-7.607
						c0.123-0.141,0.337-0.155,0.477-0.032c0.119,0.104,0.148,0.273,0.079,0.408L366.439,126.855z"/>
					<path style="fill:#753BA3;" d="M380.363,136.844c0.063,2.722-0.356,5.42-1.007,8.046c-0.646,2.632-1.566,5.197-2.713,7.664
						c-1.164,2.457-2.59,4.805-4.309,6.925c-1.711,2.119-3.715,4.022-6.006,5.466c-0.12,0.075-0.278,0.04-0.353-0.08
						c-0.065-0.103-0.044-0.238,0.039-0.321c1.88-1.876,3.541-3.889,5.004-6.041c1.45-2.157,2.739-4.423,3.818-6.796
						c1.1-2.362,2.029-4.807,2.849-7.293c0.811-2.491,1.498-5.029,2.003-7.616l0.002-0.01c0.036-0.184,0.215-0.305,0.399-0.269
						C380.248,136.549,380.359,136.688,380.363,136.844z"/>
					<path style="fill:#753BA3;" d="M432.913,173.207c-1.093,1.84-2.884,3.203-4.789,4.138c-1.939,0.894-4.007,1.413-6.074,1.729
						c-4.148,0.628-8.311,0.524-12.412,0.242c-4.105-0.308-8.17-0.828-12.21-1.395c-2.021-0.273-4.037-0.567-6.053-0.813
						c-2.015-0.274-4.033-0.457-6.058-0.531l-0.009,0c-0.141-0.005-0.25-0.123-0.245-0.264c0.005-0.129,0.104-0.232,0.229-0.244
						c4.122-0.423,8.247-0.1,12.317,0.224c4.077,0.331,8.126,0.771,12.169,1.033c4.037,0.279,8.084,0.422,12.048,0.025
						c1.975-0.215,3.934-0.57,5.77-1.249c1.838-0.667,3.497-1.757,4.758-3.277l0.006-0.008c0.12-0.144,0.334-0.164,0.478-0.044
						C432.969,172.88,432.997,173.065,432.913,173.207z"/>
					<path style="fill:#753BA3;" d="M408.968,171.036c-2.988,0.249-5.964,0.254-8.908,0.309c-2.944,0.068-5.87,0.175-8.757,0.52
						c-2.888,0.322-5.735,0.887-8.488,1.765c-2.746,0.894-5.398,2.106-7.884,3.705c-0.118,0.078-0.276,0.046-0.354-0.071
						c-0.069-0.104-0.049-0.243,0.037-0.327c2.186-2.071,4.813-3.712,7.639-4.845c2.821-1.158,5.816-1.832,8.816-2.209
						c3.007-0.357,6.025-0.415,9.012-0.276c2.99,0.114,5.942,0.464,8.887,0.751c0.187,0.016,0.326,0.18,0.311,0.367
						C409.265,170.892,409.129,171.02,408.968,171.036z"/>
					<path style="fill:#753BA3;" d="M422.955,151.193c-2.227,0.321-4.39,0.837-6.529,1.462c-2.134,0.637-4.243,1.371-6.312,2.208
						c-4.157,1.649-8.14,3.67-12.115,5.891c-0.124,0.069-0.28,0.026-0.349-0.098c-0.059-0.104-0.036-0.232,0.046-0.311
						c1.665-1.595,3.533-2.971,5.496-4.186c1.961-1.223,4.037-2.259,6.175-3.147c2.146-0.867,4.36-1.584,6.64-2.044
						c2.271-0.462,4.623-0.708,6.947-0.453c0.187,0.02,0.322,0.189,0.302,0.376c-0.017,0.158-0.14,0.279-0.29,0.3L422.955,151.193z"
						/>
					<path style="fill:#753BA3;" d="M331.687,122.588c1.634,3.078,3.263,6.168,4.68,9.378c1.439,3.198,2.682,6.503,3.662,9.895
						c0.961,3.396,1.663,6.876,1.989,10.393c0.348,3.513,0.313,7.057-0.078,10.542c-0.016,0.14-0.142,0.241-0.282,0.225
						c-0.126-0.014-0.221-0.122-0.227-0.245c-0.163-3.479-0.504-6.916-1.039-10.313c-0.552-3.395-1.306-6.75-2.282-10.047
						c-0.953-3.304-2.121-6.549-3.351-9.785c-1.243-3.23-2.547-6.464-3.696-9.773c-0.062-0.177,0.032-0.371,0.21-0.433
						C331.435,122.369,331.609,122.442,331.687,122.588z"/>
					<path style="fill:#753BA3;" d="M341.533,182.786c-1.08,0.237-2.155,0.085-3.168-0.296c-1.01-0.382-1.945-1.003-2.686-1.8
						c-0.722-0.81-1.29-1.744-1.628-2.738c-0.198-0.486-0.269-1.01-0.382-1.508c-0.053-0.515-0.082-1.028-0.06-1.538
						c0.006-0.145,0.128-0.257,0.273-0.251c0.087,0.004,0.162,0.049,0.207,0.116l0.017,0.026c0.281,0.424,0.487,0.853,0.713,1.265
						c0.257,0.397,0.456,0.811,0.711,1.184c0.477,0.768,1.027,1.44,1.6,2.071c0.601,0.604,1.252,1.145,1.988,1.606
						c0.73,0.461,1.557,0.854,2.415,1.185l0.05,0.02c0.178,0.069,0.266,0.268,0.198,0.446
						C341.737,182.685,341.641,182.762,341.533,182.786z"/>
					<path style="fill:#B069E6;" d="M320.1,160.906c0.254,3.089,0.561,6.127,1.118,9.114c0.255,1.498,0.589,2.982,0.971,4.46
						c0.357,1.491,0.844,2.939,1.259,4.468l0.003,0.012c0.037,0.137-0.044,0.279-0.181,0.316c-0.105,0.029-0.213-0.013-0.275-0.095
						c-0.954-1.282-1.769-2.687-2.36-4.18c-0.634-1.48-1.067-3.039-1.38-4.616c-0.301-1.58-0.467-3.185-0.446-4.791
						c0.011-1.606,0.163-3.205,0.618-4.777c0.053-0.182,0.243-0.286,0.424-0.234c0.14,0.04,0.235,0.163,0.246,0.3L320.1,160.906z"/>
					<path style="fill:#B069E6;" d="M332.183,204.198c0.411,0.981,0.704,1.943,1.039,2.886c0.31,0.949,0.68,1.863,1.017,2.787
						c0.717,1.832,1.539,3.614,2.494,5.433l0.013,0.025c0.067,0.127,0.018,0.285-0.11,0.352c-0.082,0.043-0.178,0.038-0.253-0.006
						c-0.976-0.572-1.731-1.366-2.39-2.232c-0.654-0.869-1.192-1.824-1.608-2.826c-0.796-2.012-1.198-4.201-0.877-6.347
						c0.029-0.191,0.207-0.323,0.398-0.294c0.125,0.019,0.225,0.102,0.271,0.21L332.183,204.198z"/>
					<path style="fill:#753BA3;" d="M327.175,138.211c0.238,2.196,1.003,4.337,1.741,6.47c0.79,2.125,1.617,4.243,2.473,6.357
						c1.71,4.232,3.505,8.446,5.082,12.79c0.049,0.133-0.018,0.28-0.151,0.33c-0.112,0.042-0.236-0.002-0.301-0.096
						c-1.311-1.922-2.459-3.93-3.529-5.981c-1.077-2.048-2.042-4.152-2.948-6.286c-0.87-2.15-1.67-4.336-2.285-6.593
						c-0.574-2.254-1.103-4.614-0.759-7.038c0.026-0.185,0.198-0.314,0.383-0.288c0.157,0.022,0.273,0.148,0.289,0.299
						L327.175,138.211z"/>
				</g>
				<g>
					<path style="fill:#FF5452;" d="M422.341,163.483c-0.787-0.207-1.478-0.318-2.09-0.336c-0.595-0.037-1.701,0.251-2.6,0.327
						c-0.937,0.103-1.745,0.164-2.666,0.243c-0.962,0.071-1.825,0.05-2.653,0.055c-1.638-0.002-3.202,0.104-4.583,0.436
						c-1.366,0.351-2.843,1.111-4.473,1.699c-3.433,1.302-6.896,0.831-9.659,1.866c-1.407,0.51-2.824,1.367-4.434,2.02
						c-1.647,0.696-3.405,0.912-5,1.135c-1.621,0.217-3.128,0.498-4.501,1.153c-1.407,0.646-2.789,1.564-4.38,2.259
						c-0.771,0.352-1.723,0.632-2.584,0.717c-0.873,0.11-1.707,0.13-2.511,0.175c-0.798,0.048-1.573,0.107-2.266,0.294
						c-0.667,0.17-1.364,0.52-2.038,0.903c-1.361,0.77-2.663,1.792-4.217,2.605l-4.444,2.132l-2.192,1.071
						c-0.717,0.353-1.37,0.756-2.046,1.187c-1.337,0.867-2.644,1.866-4.103,2.768c-0.565,0.349-1.305,0.175-1.655-0.39
						c-0.349-0.564-0.175-1.305,0.39-1.655c0.02-0.013,0.045-0.027,0.066-0.038c1.378-0.737,2.75-1.63,4.204-2.475
						c0.722-0.42,1.486-0.844,2.254-1.182l2.266-0.991l4.467-2.004c1.378-0.659,2.689-1.646,4.176-2.492
						c0.752-0.415,1.529-0.815,2.453-1.051c0.894-0.23,1.764-0.281,2.598-0.327c0.83-0.042,1.637-0.05,2.388-0.152
						c0.77-0.093,1.402-0.287,2.122-0.616c1.409-0.628,2.763-1.547,4.322-2.293c1.585-0.788,3.348-1.095,4.954-1.368
						c1.63-0.276,3.157-0.52,4.523-1.151c1.412-0.614,2.787-1.513,4.442-2.181c3.414-1.271,6.811-1.03,9.494-2.266
						c1.427-0.582,2.836-1.427,4.62-2.002c1.785-0.536,3.512-0.649,5.136-0.863c0.804-0.108,1.579-0.24,2.229-0.46
						c0.685-0.237,1.476-0.536,2.114-0.882c0.687-0.346,1.083-0.721,2.029-1.312c0.939-0.549,1.859-0.984,2.685-1.464l0.208-0.121
						c1.831-1.064,4.178-0.443,5.242,1.388c1.064,1.831,0.443,4.178-1.388,5.242C424.332,163.618,423.285,163.728,422.341,163.483z"
						/>
					<path style="fill:#FF5452;" d="M383.829,123.533c-0.67,0.264-1.264,0.582-1.766,0.902c-0.503,0.285-0.947,0.725-1.504,1.31
						l-1.575,1.598l-0.753,0.771c-0.228,0.222-0.401,0.43-0.6,0.68c-0.763,0.985-1.396,2.241-2.164,3.454
						c-0.749,1.233-1.687,2.434-2.591,3.478c-0.911,1.067-1.816,2.084-2.642,3.137l-0.606,0.795
						c-0.194,0.267-0.462,0.616-0.705,0.892c-0.499,0.577-1.026,1.077-1.541,1.556c-1.029,0.952-2.026,1.824-2.74,2.829
						c-0.698,0.927-1.002,2.163-1.323,3.516c-0.319,1.32-0.661,2.858-1.521,4.145c-0.786,1.239-1.699,2.309-2.512,3.387
						c-0.407,0.538-0.789,1.079-1.123,1.635c-0.305,0.52-0.656,1.241-1.053,1.827c-0.784,1.208-1.65,2.288-2.359,3.402
						c-0.358,0.562-0.655,1.108-0.915,1.711c-0.263,0.619-0.507,1.25-0.74,1.889c-0.466,1.279-0.891,2.588-1.346,3.906l-0.329,0.977
						c-0.092,0.289-0.172,0.585-0.23,0.895c-0.124,0.615-0.194,1.262-0.246,1.932c-0.105,1.342-0.104,2.784-0.475,4.317
						c-0.155,0.646-0.805,1.043-1.45,0.888c-0.646-0.156-1.043-0.805-0.888-1.45c0.007-0.03,0.017-0.063,0.026-0.092
						c0.372-1.139,0.513-2.478,0.698-3.881c0.092-0.704,0.205-1.43,0.392-2.162c0.089-0.365,0.206-0.733,0.344-1.096l0.381-0.971
						c0.486-1.281,0.954-2.589,1.475-3.893c0.261-0.652,0.535-1.303,0.832-1.948c0.292-0.664,0.663-1.333,1.055-1.932
						c0.789-1.21,1.666-2.285,2.395-3.391c0.38-0.56,0.64-1.082,1.025-1.759c0.369-0.634,0.78-1.228,1.199-1.798
						c0.838-1.137,1.707-2.191,2.387-3.3c0.671-1.043,0.96-2.261,1.229-3.626c0.272-1.326,0.554-2.876,1.475-4.227
						c0.853-1.284,1.934-2.275,2.893-3.234c0.481-0.479,0.94-0.951,1.328-1.435c0.199-0.257,0.34-0.465,0.536-0.768l0.6-0.891
						c0.815-1.172,1.689-2.274,2.511-3.36c0.84-1.099,1.551-2.128,2.175-3.297c0.638-1.167,1.221-2.401,1.957-3.741
						c0.173-0.333,0.406-0.684,0.599-1.01c0.169-0.293,0.354-0.577,0.504-0.877c0.319-0.593,0.597-1.187,0.803-1.797
						c0.191-0.577,0.429-1.343,0.747-2.171c0.315-0.795,0.613-1.535,0.846-2.317l0.06-0.201c0.621-2.088,2.816-3.277,4.904-2.656
						c2.087,0.621,3.277,2.816,2.656,4.904C385.808,122.189,384.91,123.101,383.829,123.533z"/>
				</g>
				<g>
					<path style="fill:#F2D734;" d="M360.548,171.214c1.849,1.776-12.076,9.323-13.577,15.668
						c-1.297-6.271,2.611-18.705,5.493-21.451c2.882-2.746,2.356,3.566,3.471,4.602
						C357.049,171.069,358.789,169.525,360.548,171.214z"/>
					<path style="fill:#F2D734;" d="M350.112,165.357c1.582,1.113-0.016,3.735-1.819,8.359c-1.803,4.624-0.728,13.177-0.728,13.177
						l-2.191-0.011c0,0-1.565-10.177-3.518-14.041c-1.953-3.864,1.01-5.076,3.219-3.274
						C347.285,171.368,347.792,163.725,350.112,165.357z"/>
					<path style="fill:#F2D734;" d="M364.722,182.773c1.88,1.418-3.619,7.103-19.347,4.11c5.446-3.533,8.804-4.912,11.117-7.143
						c3.01-2.903,3.246,1.463,4.238,2.008C361.721,182.292,362.458,181.064,364.722,182.773z"/>
					<path style="fill:#ECB32A;" d="M355.467,171.769c-0.803,1.068-1.601,2.15-2.383,3.234c-0.805,1.07-1.552,2.179-2.306,3.28
						c-0.753,1.102-1.446,2.241-2.094,3.396c-0.627,1.162-1.24,2.347-1.592,3.599l-0.002,0.006c-0.048,0.17-0.224,0.268-0.394,0.221
						c-0.161-0.045-0.258-0.207-0.227-0.368c0.268-1.377,0.812-2.652,1.422-3.873c0.6-1.231,1.323-2.388,2.064-3.526
						c0.734-1.144,1.552-2.227,2.374-3.303c0.844-1.061,1.714-2.095,2.652-3.081c0.121-0.128,0.324-0.133,0.452-0.011
						C355.553,171.455,355.563,171.641,355.467,171.769z"/>
					<path style="fill:#ECB32A;" d="M359.665,184.097c-1.077,0.674-2.213,1.14-3.377,1.565c-1.172,0.389-2.361,0.73-3.572,0.965
						c-1.213,0.217-2.429,0.427-3.658,0.501c-1.226,0.105-2.456,0.116-3.682,0.074c-0.176-0.006-0.314-0.154-0.308-0.33
						c0.006-0.164,0.134-0.295,0.294-0.307l0.01-0.001c1.205-0.089,2.405-0.173,3.597-0.326c1.192-0.148,2.376-0.338,3.55-0.577
						c1.167-0.267,2.336-0.529,3.475-0.896c1.141-0.339,2.286-0.745,3.352-1.22l0.02-0.009c0.161-0.072,0.349,0,0.421,0.161
						C359.853,183.844,359.798,184.014,359.665,184.097z"/>
					<path style="fill:#ECB32A;" d="M345.932,172.467c-0.113,1.199-0.226,2.409-0.303,3.615c-0.106,1.205-0.142,2.412-0.195,3.617
						c-0.043,1.206-0.011,2.41,0.022,3.613c0.06,1.201,0.175,2.395,0.347,3.585l0.001,0.007c0.025,0.174-0.095,0.336-0.27,0.362
						c-0.162,0.024-0.314-0.081-0.355-0.236c-0.624-2.406-0.771-4.896-0.731-7.355c0.014-1.232,0.123-2.458,0.241-3.681
						c0.151-1.221,0.328-2.432,0.615-3.639c0.041-0.172,0.213-0.278,0.385-0.237c0.157,0.037,0.259,0.185,0.244,0.341
						L345.932,172.467z"/>
				</g>
			</g>
		</g>
	</g>
</g>
</svg>
